<svg width="60" height="60" viewBox="0 0 60 60" fill="none" xmlns="http://www.w3.org/2000/svg">
<path fill-rule="evenodd" clip-rule="evenodd" d="M30 5.24537e-06C46.5686 8.1423e-06 60 13.4315 60 30C60 46.5686 46.5685 60 30 60C13.4315 60 2.34843e-06 46.5685 5.24537e-06 30C8.1423e-06 13.4315 13.4315 2.34843e-06 30 5.24537e-06ZM33.8839 39.1161C34.372 39.6043 34.372 40.3957 33.8839 40.8839C33.3957 41.372 32.6043 41.372 32.1161 40.8839L22.1161 30.8839C21.628 30.3957 21.628 29.6043 22.1161 29.1161L32.1161 19.1161C32.6043 18.628 33.3957 18.628 33.8839 19.1161C34.372 19.6043 34.372 20.3957 33.8839 20.8839L24.7678 30L33.8839 39.1161Z" fill="white"/>
</svg>
