<svg width="60" height="60" viewBox="0 0 60 60" fill="none" xmlns="http://www.w3.org/2000/svg">
<path fill-rule="evenodd" clip-rule="evenodd" d="M30 60C13.4315 60 4.07115e-06 46.5685 2.62268e-06 30C1.17422e-06 13.4315 13.4315 4.07115e-06 30 2.62268e-06C46.5685 1.17422e-06 60 13.4315 60 30C60 46.5685 46.5685 60 30 60ZM26.1161 20.8839C25.628 20.3957 25.628 19.6043 26.1161 19.1161C26.6043 18.628 27.3957 18.628 27.8839 19.1161L37.8839 29.1161C38.372 29.6043 38.372 30.3957 37.8839 30.8839L27.8839 40.8839C27.3957 41.372 26.6043 41.372 26.1161 40.8839C25.628 40.3957 25.628 39.6043 26.1161 39.1161L35.2322 30L26.1161 20.8839Z" fill="white"/>
</svg>
