<svg width="88" height="24" viewBox="0 0 88 24" fill="none" xmlns="http://www.w3.org/2000/svg">
<path d="M8.74757 11.81L8.74766 11.81L8.75126 11.8008C8.77451 11.7408 8.80911 11.6859 8.85314 11.639L11.8486 8.64356L11.8501 8.6421C11.8966 8.59524 11.9519 8.55804 12.0128 8.53266C12.0737 8.50727 12.1391 8.4942 12.2051 8.4942C12.2711 8.4942 12.3364 8.50727 12.3974 8.53266C12.4583 8.55804 12.5136 8.59524 12.5601 8.6421L12.5601 8.64211L12.563 8.645C12.6098 8.69148 12.647 8.74678 12.6724 8.80771C12.6978 8.86864 12.7109 8.93399 12.7109 9C12.7109 9.06601 12.6978 9.13136 12.6724 9.19229C12.647 9.25322 12.6098 9.30852 12.563 9.355L12.5629 9.35508L11.2629 10.6451L10.4013 11.5H11.6151H15.2051C15.3377 11.5 15.4649 11.5527 15.5586 11.6464C15.6524 11.7402 15.7051 11.8674 15.7051 12C15.7051 12.1326 15.6524 12.2598 15.5586 12.3536C15.4649 12.4473 15.3377 12.5 15.2051 12.5H11.6151H10.4013L11.2629 13.3549L12.5615 14.6436C12.5617 14.6437 12.5618 14.6438 12.562 14.644C12.6562 14.7385 12.7092 14.8665 12.7092 15C12.7092 15.1337 12.6561 15.2619 12.5615 15.3564C12.467 15.451 12.3388 15.5041 12.2051 15.5041C12.0714 15.5041 11.9432 15.451 11.8486 15.3564L8.85314 12.361C8.80911 12.3141 8.77451 12.2592 8.75126 12.1992L8.75135 12.1992L8.74757 12.19C8.69756 12.0683 8.69756 11.9317 8.74757 11.81ZM4.30612 17.2779C3.26224 15.7157 2.70508 13.8789 2.70508 12C2.70508 9.48044 3.70597 7.06408 5.48756 5.28249C6.36972 4.40033 7.41699 3.70056 8.56959 3.22314C9.72218 2.74572 10.9575 2.5 12.2051 2.5C14.084 2.5 15.9207 3.05717 17.483 4.10104C19.0453 5.14491 20.2629 6.62861 20.9819 8.36451C21.701 10.1004 21.8891 12.0105 21.5225 13.8534C21.156 15.6962 20.2512 17.3889 18.9226 18.7175C17.594 20.0461 15.9013 20.9509 14.0584 21.3175C12.2156 21.684 10.3055 21.4959 8.56959 20.7769C6.83369 20.0578 5.34999 18.8402 4.30612 17.2779ZM19.2726 16.7223C20.2066 15.3245 20.7051 13.6811 20.7051 12C20.7051 9.74566 19.8095 7.58365 18.2155 5.98959C16.6214 4.39553 14.4594 3.5 12.2051 3.5C10.5239 3.5 8.88055 3.99852 7.48273 4.93251C6.08491 5.8665 4.99545 7.19402 4.3521 8.74719C3.70876 10.3004 3.54043 12.0094 3.8684 13.6583C4.19638 15.3071 5.00592 16.8217 6.19467 18.0104C7.38342 19.1992 8.89797 20.0087 10.5468 20.3367C12.1956 20.6646 13.9047 20.4963 15.4579 19.853C17.0111 19.2096 18.3386 18.1202 19.2726 16.7223Z" fill="black" stroke="#00A0FF"/>
<path d="M33.692 5.9H38.84C40.352 5.9 41.525 6.191 42.359 6.773C43.199 7.349 43.619 8.222 43.619 9.392C43.619 10.01 43.448 10.562 43.106 11.048C42.77 11.528 42.332 11.867 41.792 12.065C42.392 12.269 42.89 12.626 43.286 13.136C43.688 13.646 43.889 14.231 43.889 14.891C43.889 16.085 43.481 16.985 42.665 17.591C41.849 18.197 40.676 18.5 39.146 18.5H33.692V5.9ZM39.02 13.262H36.203V16.286L39.02 16.295C39.77 16.295 40.334 16.184 40.712 15.962C41.09 15.734 41.279 15.335 41.279 14.765C41.279 14.207 41.087 13.817 40.703 13.595C40.325 13.373 39.764 13.262 39.02 13.262ZM38.768 8.114H36.203V11.057H38.777C39.485 11.057 40.031 10.952 40.415 10.742C40.805 10.526 41 10.136 41 9.572C41 9.338 40.961 9.137 40.883 8.969C40.805 8.795 40.7 8.654 40.568 8.546C40.442 8.438 40.28 8.351 40.082 8.285C39.89 8.219 39.689 8.174 39.479 8.15C39.269 8.126 39.032 8.114 38.768 8.114ZM52.307 5.9L57.212 18.5H54.53L53.432 15.566H48.059L46.961 18.5H44.342L49.247 5.9H52.307ZM50.75 8.384L48.923 13.253H52.568L50.75 8.384ZM63.9098 5.666C65.0738 5.666 66.1358 5.918 67.0958 6.422C68.0618 6.92 68.7998 7.61 69.3098 8.492L67.1498 9.815C66.7898 9.263 66.3308 8.837 65.7728 8.537C65.2148 8.231 64.5878 8.078 63.8918 8.078C62.7398 8.078 61.7888 8.462 61.0388 9.23C60.2888 9.998 59.9138 10.988 59.9138 12.2C59.9198 13.442 60.3008 14.441 61.0568 15.197C61.8128 15.947 62.7578 16.322 63.8918 16.322C64.5818 16.322 65.2058 16.175 65.7638 15.881C66.3218 15.581 66.7928 15.152 67.1768 14.594L69.2288 16.07C68.6588 16.904 67.9118 17.558 66.9878 18.032C66.0698 18.5 65.0438 18.734 63.9098 18.734C62.9558 18.734 62.0678 18.572 61.2458 18.248C60.4238 17.918 59.7218 17.468 59.1398 16.898C58.5638 16.322 58.1108 15.629 57.7808 14.819C57.4568 14.009 57.2948 13.136 57.2948 12.2C57.2948 11.264 57.4568 10.391 57.7808 9.581C58.1108 8.771 58.5638 8.081 59.1398 7.511C59.7218 6.935 60.4238 6.485 61.2458 6.161C62.0678 5.831 62.9558 5.666 63.9098 5.666ZM79.2797 18.5L74.7977 13.316H73.6367V18.5H71.1257V5.9H73.6367V11.003H74.8247L78.9917 5.9H82.1417L76.8587 12.047L82.5377 18.5H79.2797Z" fill="#00A0FF"/>
</svg>
