<svg width="184" height="129" viewBox="0 0 184 129" fill="none" xmlns="http://www.w3.org/2000/svg">
<rect x="95.2734" y="1" width="91.6877" height="78.4043" rx="18.3667" transform="rotate(14.6011 95.2734 1)" fill="url(#paint0_linear_1784:3881)"/>
<g filter="url(#filter0_f_1784:3881)">
<rect x="111.137" y="8.29721" width="57.3048" height="3.6752" rx="1.83667" transform="rotate(14.6011 111.137 8.29721)" fill="white" fill-opacity="0.2"/>
</g>
<g filter="url(#filter1_f_1784:3881)">
<rect x="161.914" y="84.0312" width="49.0027" height="2.14893" rx="1.07446" transform="rotate(-75.3989 161.914 84.0312)" fill="white" fill-opacity="0.2"/>
</g>
<g filter="url(#filter2_f_1784:3881)">
<rect x="83.2383" y="63.5359" width="49.0027" height="1.07446" rx="0.537232" transform="rotate(-75.3989 83.2383 63.5359)" fill="white" fill-opacity="0.58"/>
</g>
<g filter="url(#filter3_f_1784:3881)">
<rect x="94.2012" y="21.451" width="5.5128" height="1.07446" rx="0.537232" transform="rotate(-75.3989 94.2012 21.451)" fill="white" fill-opacity="0.2"/>
</g>
<g filter="url(#filter4_f_1784:3881)">
<rect x="172.879" y="41.9463" width="5.5128" height="2.14893" rx="1.07446" transform="rotate(-75.3989 172.879 41.9463)" fill="white" fill-opacity="0.2"/>
</g>
<g filter="url(#filter5_d_1784:3881)">
<circle cx="139.968" cy="33.7849" r="3.08839" transform="rotate(6.09121 139.968 33.7849)" fill="#689F38"/>
<circle cx="139.968" cy="33.7849" r="3.08839" transform="rotate(6.09121 139.968 33.7849)" fill="url(#paint1_radial_1784:3881)"/>
</g>
<g filter="url(#filter6_d_1784:3881)">
<path d="M122.963 36.0911C125.466 34.1061 129.174 35.0719 130.39 38.026L138.85 58.564C140.359 62.229 137.032 66.0424 133.196 65.0432L107.332 58.3056C103.496 57.3064 102.452 52.3542 105.558 49.8915L122.963 36.0911Z" fill="#689F38"/>
<path d="M122.963 36.0911C125.466 34.1061 129.174 35.0719 130.39 38.0259L138.85 58.564C140.359 62.229 137.032 66.0424 133.196 65.0432L107.332 58.3056C103.497 57.3064 102.452 52.3542 105.558 49.8915L122.963 36.0911Z" fill="url(#paint2_radial_1784:3881)"/>
</g>
<g filter="url(#filter7_d_1784:3881)">
<path d="M138.118 44.6528C140.342 42.8894 143.636 43.7474 144.716 46.3716L148.756 56.1783C150.097 59.4341 147.141 62.8217 143.733 61.9341L131.384 58.717C127.976 57.8293 127.049 53.4301 129.808 51.2423L138.118 44.6528Z" fill="#689F38"/>
<path d="M138.118 44.6528C140.342 42.8894 143.636 43.7474 144.716 46.3716L148.756 56.1783C150.097 59.4341 147.141 62.8217 143.733 61.9341L131.384 58.717C127.976 57.8293 127.049 53.43 129.808 51.2423L138.118 44.6528Z" fill="url(#paint3_radial_1784:3881)"/>
</g>
<g filter="url(#filter8_bii_1784:3881)">
<rect x="0.75" y="52.4424" width="91.875" height="79.8911" rx="23.4747" transform="rotate(-18.9564 0.75 52.4424)" fill="url(#paint4_linear_1784:3881)" fill-opacity="0.3"/>
<rect x="1.08895" y="52.6081" width="91.3415" height="79.3576" rx="23.2079" transform="rotate(-18.9564 1.08895 52.6081)" stroke="url(#paint5_linear_1784:3881)" stroke-opacity="0.3" stroke-width="0.533516"/>
</g>
<g filter="url(#filter9_d_1784:3881)">
<circle cx="64.3026" cy="56.294" r="3.08839" transform="rotate(-28.0366 64.3026 56.294)" fill="#689F38"/>
<circle cx="64.3026" cy="56.294" r="3.08839" transform="rotate(-28.0366 64.3026 56.294)" fill="url(#paint6_radial_1784:3881)"/>
</g>
<g filter="url(#filter10_d_1784:3881)">
<path d="M46.8247 67.3045C47.8149 64.1562 51.5451 62.8334 54.2977 64.6543L73.4349 77.3143C76.85 79.5735 76.2146 84.763 72.3555 86.1316L46.3333 95.3602C42.4742 96.7288 38.7112 93.0991 39.9398 89.1931L46.8247 67.3045Z" fill="#689F38"/>
<path d="M46.8247 67.3045C47.8149 64.1562 51.5451 62.8334 54.2977 64.6543L73.4349 77.3143C76.85 79.5735 76.2146 84.763 72.3555 86.1316L46.3333 95.3602C42.4742 96.7288 38.7112 93.0991 39.9398 89.1931L46.8247 67.3045Z" fill="url(#paint7_radial_1784:3881)"/>
</g>
<g filter="url(#filter11_d_1784:3881)">
<path d="M68.5441 65.9452C69.3957 63.2378 72.6034 62.1002 74.9705 63.6661L83.816 69.5178C86.7527 71.4605 86.2064 75.9232 82.8878 77.1001L70.8599 81.3657C67.5412 82.5427 64.3053 79.4214 65.3618 76.0624L68.5441 65.9452Z" fill="#689F38"/>
<path d="M68.5441 65.9452C69.3957 63.2378 72.6034 62.1002 74.9705 63.6661L83.816 69.5178C86.7527 71.4605 86.2064 75.9232 82.8878 77.1001L70.8599 81.3657C67.5412 82.5427 64.3053 79.4213 65.3618 76.0624L68.5441 65.9452Z" fill="url(#paint8_radial_1784:3881)"/>
</g>
<defs>
<filter id="filter0_f_1784:3881" x="102.501" y="0.588529" width="71.7982" height="33.4197" filterUnits="userSpaceOnUse" color-interpolation-filters="sRGB">
<feFlood flood-opacity="0" result="BackgroundImageFix"/>
<feBlend mode="normal" in="SourceGraphic" in2="BackgroundImageFix" result="shape"/>
<feGaussianBlur stdDeviation="4.05599" result="effect1_foregroundBlur_1784:3881"/>
</filter>
<filter id="filter1_f_1784:3881" x="156.487" y="31.1839" width="25.2871" height="58.8162" filterUnits="userSpaceOnUse" color-interpolation-filters="sRGB">
<feFlood flood-opacity="0" result="BackgroundImageFix"/>
<feBlend mode="normal" in="SourceGraphic" in2="BackgroundImageFix" result="shape"/>
<feGaussianBlur stdDeviation="2.83154" result="effect1_foregroundBlur_1784:3881"/>
</filter>
<filter id="filter2_f_1784:3881" x="77.6924" y="10.5706" width="24.4844" height="58.7812" filterUnits="userSpaceOnUse" color-interpolation-filters="sRGB">
<feFlood flood-opacity="0" result="BackgroundImageFix"/>
<feBlend mode="normal" in="SourceGraphic" in2="BackgroundImageFix" result="shape"/>
<feGaussianBlur stdDeviation="2.83154" result="effect1_foregroundBlur_1784:3881"/>
</filter>
<filter id="filter3_f_1784:3881" x="91.5633" y="13.4792" width="7.70533" height="10.8797" filterUnits="userSpaceOnUse" color-interpolation-filters="sRGB">
<feFlood flood-opacity="0" result="BackgroundImageFix"/>
<feBlend mode="normal" in="SourceGraphic" in2="BackgroundImageFix" result="shape"/>
<feGaussianBlur stdDeviation="1.3775" result="effect1_foregroundBlur_1784:3881"/>
</filter>
<filter id="filter4_f_1784:3881" x="170.36" y="34.0924" width="8.50611" height="10.9147" filterUnits="userSpaceOnUse" color-interpolation-filters="sRGB">
<feFlood flood-opacity="0" result="BackgroundImageFix"/>
<feBlend mode="normal" in="SourceGraphic" in2="BackgroundImageFix" result="shape"/>
<feGaussianBlur stdDeviation="1.3775" result="effect1_foregroundBlur_1784:3881"/>
</filter>
<filter id="filter5_d_1784:3881" x="135.231" y="30.6963" width="9.4739" height="9.47344" filterUnits="userSpaceOnUse" color-interpolation-filters="sRGB">
<feFlood flood-opacity="0" result="BackgroundImageFix"/>
<feColorMatrix in="SourceAlpha" type="matrix" values="0 0 0 0 0 0 0 0 0 0 0 0 0 0 0 0 0 0 127 0" result="hardAlpha"/>
<feOffset dy="1.64808"/>
<feGaussianBlur stdDeviation="0.824041"/>
<feComposite in2="hardAlpha" operator="out"/>
<feColorMatrix type="matrix" values="0 0 0 0 0 0 0 0 0 0 0 0 0 0 0 0 0 0 0.09 0"/>
<feBlend mode="normal" in2="BackgroundImageFix" result="effect1_dropShadow_1784:3881"/>
<feBlend mode="normal" in="SourceGraphic" in2="effect1_dropShadow_1784:3881" result="shape"/>
</filter>
<filter id="filter6_d_1784:3881" x="94.1272" y="27.8427" width="54.7026" height="49.3735" filterUnits="userSpaceOnUse" color-interpolation-filters="sRGB">
<feFlood flood-opacity="0" result="BackgroundImageFix"/>
<feColorMatrix in="SourceAlpha" type="matrix" values="0 0 0 0 0 0 0 0 0 0 0 0 0 0 0 0 0 0 127 0" result="hardAlpha"/>
<feOffset dy="2.40228"/>
<feGaussianBlur stdDeviation="4.80455"/>
<feComposite in2="hardAlpha" operator="out"/>
<feColorMatrix type="matrix" values="0 0 0 0 0 0 0 0 0 0 0 0 0 0 0 0 0 0 0.25 0"/>
<feBlend mode="normal" in2="BackgroundImageFix" result="effect1_dropShadow_1784:3881"/>
<feBlend mode="normal" in="SourceGraphic" in2="effect1_dropShadow_1784:3881" result="shape"/>
</filter>
<filter id="filter7_d_1784:3881" x="119.653" y="37.3254" width="37.969" height="35.4226" filterUnits="userSpaceOnUse" color-interpolation-filters="sRGB">
<feFlood flood-opacity="0" result="BackgroundImageFix"/>
<feColorMatrix in="SourceAlpha" type="matrix" values="0 0 0 0 0 0 0 0 0 0 0 0 0 0 0 0 0 0 127 0" result="hardAlpha"/>
<feOffset dy="2.13406"/>
<feGaussianBlur stdDeviation="4.26813"/>
<feComposite in2="hardAlpha" operator="out"/>
<feColorMatrix type="matrix" values="0 0 0 0 0 0 0 0 0 0 0 0 0 0 0 0 0 0 0.25 0"/>
<feBlend mode="normal" in2="BackgroundImageFix" result="effect1_dropShadow_1784:3881"/>
<feBlend mode="normal" in="SourceGraphic" in2="effect1_dropShadow_1784:3881" result="shape"/>
</filter>
<filter id="filter8_bii_1784:3881" x="-9.97681" y="11.8707" width="134.297" height="126.856" filterUnits="userSpaceOnUse" color-interpolation-filters="sRGB">
<feFlood flood-opacity="0" result="BackgroundImageFix"/>
<feGaussianBlur in="BackgroundImage" stdDeviation="8.53626"/>
<feComposite in2="SourceAlpha" operator="in" result="effect1_backgroundBlur_1784:3881"/>
<feBlend mode="normal" in="SourceGraphic" in2="effect1_backgroundBlur_1784:3881" result="shape"/>
<feColorMatrix in="SourceAlpha" type="matrix" values="0 0 0 0 0 0 0 0 0 0 0 0 0 0 0 0 0 0 127 0" result="hardAlpha"/>
<feOffset dx="2.2847" dy="1.82776"/>
<feGaussianBlur stdDeviation="26.1423"/>
<feComposite in2="hardAlpha" operator="arithmetic" k2="-1" k3="1"/>
<feColorMatrix type="matrix" values="0 0 0 0 1 0 0 0 0 1 0 0 0 0 1 0 0 0 0.25 0"/>
<feBlend mode="normal" in2="shape" result="effect2_innerShadow_1784:3881"/>
<feColorMatrix in="SourceAlpha" type="matrix" values="0 0 0 0 0 0 0 0 0 0 0 0 0 0 0 0 0 0 127 0" result="hardAlpha"/>
<feOffset dx="-2.2847" dy="-1.82776"/>
<feGaussianBlur stdDeviation="5.33516"/>
<feComposite in2="hardAlpha" operator="arithmetic" k2="-1" k3="1"/>
<feColorMatrix type="matrix" values="0 0 0 0 0.8375 0 0 0 0 0.8375 0 0 0 0 0.8375 0 0 0 0.25 0"/>
<feBlend mode="normal" in2="effect2_innerShadow_1784:3881" result="effect3_innerShadow_1784:3881"/>
</filter>
<filter id="filter9_d_1784:3881" x="59.5648" y="53.205" width="9.47585" height="9.47417" filterUnits="userSpaceOnUse" color-interpolation-filters="sRGB">
<feFlood flood-opacity="0" result="BackgroundImageFix"/>
<feColorMatrix in="SourceAlpha" type="matrix" values="0 0 0 0 0 0 0 0 0 0 0 0 0 0 0 0 0 0 127 0" result="hardAlpha"/>
<feOffset dy="1.64808"/>
<feGaussianBlur stdDeviation="0.824041"/>
<feComposite in2="hardAlpha" operator="out"/>
<feColorMatrix type="matrix" values="0 0 0 0 0 0 0 0 0 0 0 0 0 0 0 0 0 0 0.09 0"/>
<feBlend mode="normal" in2="BackgroundImageFix" result="effect1_dropShadow_1784:3881"/>
<feBlend mode="normal" in="SourceGraphic" in2="effect1_dropShadow_1784:3881" result="shape"/>
</filter>
<filter id="filter10_d_1784:3881" x="29.7766" y="56.383" width="55.8101" height="51.6799" filterUnits="userSpaceOnUse" color-interpolation-filters="sRGB">
<feFlood flood-opacity="0" result="BackgroundImageFix"/>
<feColorMatrix in="SourceAlpha" type="matrix" values="0 0 0 0 0 0 0 0 0 0 0 0 0 0 0 0 0 0 127 0" result="hardAlpha"/>
<feOffset dy="2.48164"/>
<feGaussianBlur stdDeviation="4.96328"/>
<feComposite in2="hardAlpha" operator="out"/>
<feColorMatrix type="matrix" values="0 0 0 0 0 0 0 0 0 0 0 0 0 0 0 0 0 0 0.25 0"/>
<feBlend mode="normal" in2="BackgroundImageFix" result="effect1_dropShadow_1784:3881"/>
<feBlend mode="normal" in="SourceGraphic" in2="effect1_dropShadow_1784:3881" result="shape"/>
</filter>
<filter id="filter11_d_1784:3881" x="56.6219" y="56.5533" width="37.6448" height="35.7361" filterUnits="userSpaceOnUse" color-interpolation-filters="sRGB">
<feFlood flood-opacity="0" result="BackgroundImageFix"/>
<feColorMatrix in="SourceAlpha" type="matrix" values="0 0 0 0 0 0 0 0 0 0 0 0 0 0 0 0 0 0 127 0" result="hardAlpha"/>
<feOffset dy="2.13406"/>
<feGaussianBlur stdDeviation="4.26813"/>
<feComposite in2="hardAlpha" operator="out"/>
<feColorMatrix type="matrix" values="0 0 0 0 0 0 0 0 0 0 0 0 0 0 0 0 0 0 0.25 0"/>
<feBlend mode="normal" in2="BackgroundImageFix" result="effect1_dropShadow_1784:3881"/>
<feBlend mode="normal" in="SourceGraphic" in2="effect1_dropShadow_1784:3881" result="shape"/>
</filter>
<linearGradient id="paint0_linear_1784:3881" x1="147.994" y1="1.00001" x2="143.657" y2="79.1636" gradientUnits="userSpaceOnUse">
<stop stop-color="#FDBC8D"/>
<stop offset="1" stop-color="#F24B77"/>
</linearGradient>
<radialGradient id="paint1_radial_1784:3881" cx="0" cy="0" r="1" gradientUnits="userSpaceOnUse" gradientTransform="translate(138.757 32.2407) rotate(59.257) scale(5.39006 8.35348)">
<stop stop-color="#D8FFB7"/>
<stop offset="1" stop-color="#689F38" stop-opacity="0"/>
</radialGradient>
<radialGradient id="paint2_radial_1784:3881" cx="0" cy="0" r="1" gradientUnits="userSpaceOnUse" gradientTransform="translate(115.318 39.3515) rotate(66.7921) scale(38.646 66.0253)">
<stop stop-color="#D8FFB7"/>
<stop offset="1" stop-color="#689F38" stop-opacity="0"/>
</radialGradient>
<radialGradient id="paint3_radial_1784:3881" cx="0" cy="0" r="1" gradientUnits="userSpaceOnUse" gradientTransform="translate(134.345 45.8246) rotate(66.7921) scale(25.1045 42.8901)">
<stop stop-color="#D8FFB7"/>
<stop offset="1" stop-color="#689F38" stop-opacity="0"/>
</radialGradient>
<linearGradient id="paint4_linear_1784:3881" x1="-1.45248" y1="49.7343" x2="80.9232" y2="152.825" gradientUnits="userSpaceOnUse">
<stop offset="0.0001" stop-color="#FFC4AB" stop-opacity="0.6"/>
<stop offset="1" stop-color="#F66F7E" stop-opacity="0.67"/>
</linearGradient>
<linearGradient id="paint5_linear_1784:3881" x1="4.52569" y1="52.4424" x2="78.5691" y2="146.148" gradientUnits="userSpaceOnUse">
<stop stop-color="white"/>
<stop offset="1" stop-color="white" stop-opacity="0"/>
</linearGradient>
<radialGradient id="paint6_radial_1784:3881" cx="0" cy="0" r="1" gradientUnits="userSpaceOnUse" gradientTransform="translate(63.0915 54.7498) rotate(59.257) scale(5.39006 8.35348)">
<stop stop-color="#D8FFB7"/>
<stop offset="1" stop-color="#689F38" stop-opacity="0"/>
</radialGradient>
<radialGradient id="paint7_radial_1784:3881" cx="0" cy="0" r="1" gradientUnits="userSpaceOnUse" gradientTransform="translate(42.177 74.5235) rotate(32.6643) scale(39.9228 68.2066)">
<stop stop-color="#D8FFB7"/>
<stop offset="1" stop-color="#689F38" stop-opacity="0"/>
</radialGradient>
<radialGradient id="paint8_radial_1784:3881" cx="0" cy="0" r="1" gradientUnits="userSpaceOnUse" gradientTransform="translate(66.0785 69.0318) rotate(32.6643) scale(25.1045 42.8901)">
<stop stop-color="#D8FFB7"/>
<stop offset="1" stop-color="#689F38" stop-opacity="0"/>
</radialGradient>
</defs>
</svg>
