<svg width="36" height="35" viewBox="0 0 36 35" fill="none" xmlns="http://www.w3.org/2000/svg">
<path d="M35.0546 17.4727C35.0546 18.5647 33.1435 19.493 32.9251 20.5304C32.7067 21.6225 34.1264 23.1513 33.6895 24.1888C33.2527 25.2262 31.1778 25.3354 30.5772 26.209C29.9766 27.1373 30.6864 29.103 29.922 29.8674C29.1576 30.6318 27.1919 29.922 26.2637 30.5226C25.39 31.1232 25.2262 33.2527 24.2434 33.6349C23.2605 34.0718 21.6771 32.6521 20.585 32.8705C19.5476 33.0889 18.6193 35 17.5273 35C16.4353 35 15.507 33.0889 14.4696 32.8705C13.3775 32.6521 11.8487 34.0718 10.8112 33.6349C9.77379 33.3073 9.66459 31.1778 8.79095 30.5772C7.86271 29.9766 5.89704 30.6864 5.13261 29.922C4.36817 29.1576 5.078 27.1919 4.47738 26.2637C3.87676 25.39 1.74727 25.2262 1.36505 24.2434C0.928237 23.2605 2.34789 21.6771 2.12949 20.585C1.91108 19.5476 0 18.6193 0 17.5273C0 16.4353 1.91108 15.507 2.12949 14.4696C2.34789 13.3775 0.928237 11.8487 1.36505 10.8112C1.80187 9.77379 3.87676 9.66459 4.47738 8.79095C5.078 7.86272 4.36817 5.89704 5.13261 5.13261C5.89704 4.36818 7.86271 5.078 8.79095 4.47738C9.66459 3.87676 9.82839 1.74727 10.8112 1.36505C11.7941 0.928237 13.3775 2.34789 14.4696 2.12949C15.507 1.91108 16.4353 0 17.5273 0C18.6193 0 19.5476 1.91108 20.585 2.12949C21.6771 2.34789 23.2059 0.928237 24.2434 1.36505C25.2808 1.80187 25.39 3.87676 26.2637 4.47738C27.1919 5.078 29.1576 4.36818 29.922 5.13261C30.6864 5.89704 29.9766 7.86272 30.5772 8.79095C31.1778 9.66459 33.3073 9.82839 33.6895 10.8112C34.1264 11.7941 32.7067 13.3775 32.9251 14.4696C33.1435 15.4524 35.0546 16.3807 35.0546 17.4727Z" fill="url(#paint0_linear)"/>
<path d="M17.5277 31.0141C25.0063 31.0141 31.069 24.9514 31.069 17.4727C31.069 9.99406 25.0063 3.9314 17.5277 3.9314C10.049 3.9314 3.98633 9.99406 3.98633 17.4727C3.98633 24.9514 10.049 31.0141 17.5277 31.0141Z" fill="url(#paint1_linear)"/>
<path d="M11.9578 17.9642L16.4351 21.5679L23.0966 13.4322" stroke="#E9EBFD" stroke-width="3" stroke-miterlimit="10" stroke-linecap="round" stroke-linejoin="round"/>
<defs>
<linearGradient id="paint0_linear" x1="3.82215" y1="5.46022" x2="29.4852" y2="30.3042" gradientUnits="userSpaceOnUse">
<stop stop-color="#C0E9FF"/>
<stop offset="1" stop-color="#63B7FF"/>
</linearGradient>
<linearGradient id="paint1_linear" x1="16.2582" y1="2.88592" x2="28.115" y2="24.514" gradientUnits="userSpaceOnUse">
<stop stop-color="#04A7FD"/>
<stop offset="1" stop-color="#0B47FD"/>
</linearGradient>
</defs>
</svg>
