<svg width="211" height="151" viewBox="0 0 211 151" fill="none" xmlns="http://www.w3.org/2000/svg">
<rect x="36.4067" y="30" width="141.492" height="120.893" rx="22.1212" fill="#CAEBFF" fill-opacity="0.25"/>
<circle cx="5.18978" cy="85.87" r="4.78304" fill="#CAEBFF" fill-opacity="0.25"/>
<circle cx="204.853" cy="96.7968" r="3.82643" fill="#CAEBFF" fill-opacity="0.25"/>
<circle cx="209.066" cy="55.5725" r="1.74756" fill="#CAEBFF" fill-opacity="0.25"/>
<circle cx="135.871" cy="3.34813" r="3.34813" fill="#CAEBFF" fill-opacity="0.25"/>
<circle cx="25.4617" cy="23.6567" r="4.78304" fill="#CAEBFF" fill-opacity="0.25"/>
<circle cx="14.2033" cy="13.7966" r="1.91321" fill="#CAEBFF" fill-opacity="0.25"/>
<g filter="url(#filter0_d_2679_2717)">
<path d="M137.534 88.1195L109.271 59.8565C108.087 58.6722 106.455 58 104.758 58H81.8083C78.2875 58 75.4067 60.8807 75.4067 64.4016V87.3513C75.4067 89.0478 76.0789 90.6802 77.2952 91.8645L105.558 120.128C108.055 122.624 112.12 122.624 114.617 120.128L137.566 97.1778C140.063 94.6812 140.063 90.6482 137.534 88.1195ZM89.8103 77.2048C87.1537 77.2048 85.0091 75.0603 85.0091 72.4036C85.0091 69.7469 87.1537 67.6024 89.8103 67.6024C92.467 67.6024 94.6115 69.7469 94.6115 72.4036C94.6115 75.0603 92.467 77.2048 89.8103 77.2048Z" fill="#878C94"/>
</g>
<defs>
<filter id="filter0_d_2679_2717" x="65.7976" y="50.7932" width="83.246" height="83.2182" filterUnits="userSpaceOnUse" color-interpolation-filters="sRGB">
<feFlood flood-opacity="0" result="BackgroundImageFix"/>
<feColorMatrix in="SourceAlpha" type="matrix" values="0 0 0 0 0 0 0 0 0 0 0 0 0 0 0 0 0 0 127 0" result="hardAlpha"/>
<feOffset dy="2.40228"/>
<feGaussianBlur stdDeviation="4.80455"/>
<feComposite in2="hardAlpha" operator="out"/>
<feColorMatrix type="matrix" values="0 0 0 0 0 0 0 0 0 0 0 0 0 0 0 0 0 0 0.25 0"/>
<feBlend mode="normal" in2="BackgroundImageFix" result="effect1_dropShadow_2679_2717"/>
<feBlend mode="normal" in="SourceGraphic" in2="effect1_dropShadow_2679_2717" result="shape"/>
</filter>
</defs>
</svg>
