<svg width="211" height="151" viewBox="0 0 211 151" fill="none" xmlns="http://www.w3.org/2000/svg">
<rect x="36" y="30" width="141.492" height="120.893" rx="22.1212" fill="#CAEBFF" fill-opacity="0.25"/>
<circle cx="4.78304" cy="85.87" r="4.78304" fill="#CAEBFF" fill-opacity="0.25"/>
<circle cx="204.446" cy="96.7968" r="3.82643" fill="#CAEBFF" fill-opacity="0.25"/>
<circle cx="208.659" cy="55.5725" r="1.74756" fill="#CAEBFF" fill-opacity="0.25"/>
<circle cx="135.464" cy="3.34813" r="3.34813" fill="#CAEBFF" fill-opacity="0.25"/>
<circle cx="25.055" cy="23.6567" r="4.78304" fill="#CAEBFF" fill-opacity="0.25"/>
<circle cx="13.7965" cy="13.7966" r="1.91321" fill="#CAEBFF" fill-opacity="0.25"/>
<g filter="url(#filter0_d_2530_4980)">
<circle cx="118.636" cy="66.9712" r="4.3723" transform="rotate(-8.50991 118.636 66.9712)" fill="#878C94"/>
<circle cx="118.636" cy="66.9712" r="4.3723" transform="rotate(-8.50991 118.636 66.9712)" fill="#878C94"/>
</g>
<g filter="url(#filter1_d_2530_4980)">
<path d="M97.7568 74.0817C99.6789 71.5297 103.51 71.5297 105.432 74.0817L128.356 104.517C130.741 107.683 128.482 112.212 124.519 112.212H78.6705C74.7068 112.212 72.448 107.683 74.8327 104.517L97.7568 74.0817Z" fill="#689F38"/>
<path d="M97.7568 74.0817C99.6789 71.5297 103.51 71.5297 105.432 74.0817L128.356 104.517C130.741 107.683 128.482 112.212 124.519 112.212H78.6705C74.7068 112.212 72.448 107.683 74.8327 104.517L97.7568 74.0817Z" fill="#878C94"/>
</g>
<g filter="url(#filter2_d_2530_4980)">
<path d="M121.396 80.6392C123.103 78.3722 126.507 78.3722 128.214 80.6392L140.806 97.3563C142.924 100.169 140.918 104.192 137.397 104.192H112.214C108.693 104.192 106.686 100.169 108.805 97.3563L121.396 80.6392Z" fill="#878C94"/>
<path d="M121.396 80.6392C123.103 78.3722 126.507 78.3722 128.214 80.6392L140.806 97.3563C142.924 100.169 140.918 104.192 137.397 104.192H112.214C108.693 104.192 106.686 100.169 108.805 97.3563L121.396 80.6392Z" fill="#878C94"/>
</g>
<defs>
<filter id="filter0_d_2530_4980" x="112.615" y="62.5983" width="12.0423" height="12.042" filterUnits="userSpaceOnUse" color-interpolation-filters="sRGB">
<feFlood flood-opacity="0" result="BackgroundImageFix"/>
<feColorMatrix in="SourceAlpha" type="matrix" values="0 0 0 0 0 0 0 0 0 0 0 0 0 0 0 0 0 0 127 0" result="hardAlpha"/>
<feOffset dy="1.64808"/>
<feGaussianBlur stdDeviation="0.824041"/>
<feComposite in2="hardAlpha" operator="out"/>
<feColorMatrix type="matrix" values="0 0 0 0 0 0 0 0 0 0 0 0 0 0 0 0 0 0 0.09 0"/>
<feBlend mode="normal" in2="BackgroundImageFix" result="effect1_dropShadow_2530_4980"/>
<feBlend mode="normal" in="SourceGraphic" in2="effect1_dropShadow_2530_4980" result="shape"/>
</filter>
<filter id="filter1_d_2530_4980" x="64.2478" y="64.9609" width="74.6933" height="59.2626" filterUnits="userSpaceOnUse" color-interpolation-filters="sRGB">
<feFlood flood-opacity="0" result="BackgroundImageFix"/>
<feColorMatrix in="SourceAlpha" type="matrix" values="0 0 0 0 0 0 0 0 0 0 0 0 0 0 0 0 0 0 127 0" result="hardAlpha"/>
<feOffset dy="2.40228"/>
<feGaussianBlur stdDeviation="4.80455"/>
<feComposite in2="hardAlpha" operator="out"/>
<feColorMatrix type="matrix" values="0 0 0 0 0 0 0 0 0 0 0 0 0 0 0 0 0 0 0.25 0"/>
<feBlend mode="normal" in2="BackgroundImageFix" result="effect1_dropShadow_2530_4980"/>
<feBlend mode="normal" in="SourceGraphic" in2="effect1_dropShadow_2530_4980" result="shape"/>
</filter>
<filter id="filter2_d_2530_4980" x="99.4017" y="72.5367" width="50.8069" height="42.3259" filterUnits="userSpaceOnUse" color-interpolation-filters="sRGB">
<feFlood flood-opacity="0" result="BackgroundImageFix"/>
<feColorMatrix in="SourceAlpha" type="matrix" values="0 0 0 0 0 0 0 0 0 0 0 0 0 0 0 0 0 0 127 0" result="hardAlpha"/>
<feOffset dy="2.13406"/>
<feGaussianBlur stdDeviation="4.26813"/>
<feComposite in2="hardAlpha" operator="out"/>
<feColorMatrix type="matrix" values="0 0 0 0 0 0 0 0 0 0 0 0 0 0 0 0 0 0 0.25 0"/>
<feBlend mode="normal" in2="BackgroundImageFix" result="effect1_dropShadow_2530_4980"/>
<feBlend mode="normal" in="SourceGraphic" in2="effect1_dropShadow_2530_4980" result="shape"/>
</filter>
</defs>
</svg>
