<svg width="38" height="37" viewBox="0 0 38 37" fill="none" xmlns="http://www.w3.org/2000/svg">
<path d="M37.3324 18.5C37.3324 28.7173 29.1725 37 19.1069 37C9.04119 37 0.881348 28.7173 0.881348 18.5C0.881348 8.28273 9.04119 0 19.1069 0C29.1725 0 37.3324 8.28273 37.3324 18.5Z" fill="white"/>
<path d="M25.8956 24.1578L26.7052 18.9362H21.6406V15.5492C21.6406 14.1204 22.3468 12.7268 24.6152 12.7268H26.9192V8.28137C26.9192 8.28137 24.8292 7.92856 22.8319 7.92856C18.659 7.92856 15.934 10.4299 15.934 14.9565V18.9362H11.2974V24.1578H15.934V36.7813C16.8649 36.9259 17.8172 37 18.7873 37C19.7574 37 20.7098 36.9259 21.6406 36.7813V24.1578H25.8956Z" fill="url(#paint0_linear)"/>
<defs>
<linearGradient id="paint0_linear" x1="18.376" y1="6.80631" x2="33.4698" y2="21.6013" gradientUnits="userSpaceOnUse">
<stop stop-color="#04A7FD"/>
<stop offset="1" stop-color="#0B47FD"/>
</linearGradient>
</defs>
</svg>
