<svg width="24" height="24" viewBox="0 0 24 24" fill="none" xmlns="http://www.w3.org/2000/svg">
<path d="M14 18V16.6667C14 15.9594 13.7471 15.2811 13.2971 14.781C12.847 14.281 12.2365 14 11.6 14H7.4C6.76348 14 6.15303 14.281 5.70294 14.781C5.25286 15.2811 5 15.9594 5 16.6667V18" stroke="#00A0FF" stroke-width="2" stroke-linecap="round" stroke-linejoin="round"/>
<path d="M17 9V13" stroke="#00A0FF" stroke-width="2" stroke-linecap="round" stroke-linejoin="round"/>
<path d="M19 11H15" stroke="#00A0FF" stroke-width="2" stroke-linecap="round" stroke-linejoin="round"/>
<path d="M9.5 11C10.8807 11 12 9.88071 12 8.5C12 7.11929 10.8807 6 9.5 6C8.11929 6 7 7.11929 7 8.5C7 9.88071 8.11929 11 9.5 11Z" stroke="#00A0FF" stroke-width="2" stroke-linecap="round" stroke-linejoin="round"/>
</svg>
