<svg width="301" height="266" viewBox="0 0 301 266" fill="none" xmlns="http://www.w3.org/2000/svg">
<rect x="52" y="43" width="202.414" height="173" rx="31.7974" fill="#CAEBFF" fill-opacity="0.25"/>
<g filter="url(#filter0_f_2355_12996)">
<rect x="89.9531" y="49.7574" width="126.509" height="8.10938" rx="3.17974" fill="white" fill-opacity="0.2"/>
</g>
<g filter="url(#filter1_f_2355_12996)">
<rect x="240.576" y="183.224" width="108.125" height="4.74407" rx="2.37204" transform="rotate(-90 240.576 183.224)" fill="white" fill-opacity="0.2"/>
</g>
<g filter="url(#filter2_f_2355_12996)">
<rect x="61.0938" y="183.224" width="108.125" height="2.37204" rx="1.18602" transform="rotate(-90 61.0938 183.224)" fill="white" fill-opacity="0.58"/>
</g>
<g filter="url(#filter3_f_2355_12996)">
<rect x="61.0918" y="87.2641" width="12.1641" height="2.37204" rx="1.18602" transform="rotate(-90 61.0918 87.2641)" fill="white" fill-opacity="0.2"/>
</g>
<g filter="url(#filter4_f_2355_12996)">
<rect x="240.576" y="87.2642" width="12.1641" height="4.74407" rx="2.37204" transform="rotate(-90 240.576 87.2642)" fill="white" fill-opacity="0.2"/>
</g>
<circle cx="6.84244" cy="122.842" r="6.84244" fill="#CAEBFF" fill-opacity="0.25"/>
<circle cx="292.474" cy="138.474" r="5.47395" fill="#CAEBFF" fill-opacity="0.25"/>
<circle cx="298.5" cy="79.5" r="2.5" fill="#CAEBFF" fill-opacity="0.25"/>
<circle cx="193.79" cy="4.78971" r="4.78971" fill="#CAEBFF" fill-opacity="0.25"/>
<circle cx="35.8424" cy="33.8424" r="6.84244" fill="#CAEBFF" fill-opacity="0.25"/>
<circle cx="19.737" cy="19.737" r="2.73698" fill="#CAEBFF" fill-opacity="0.25"/>
<path d="M32.2314 250.8L27.8234 257.304V262H26.5434V257.288L22.1114 250.8H23.6474L27.1914 256.112L30.7354 250.8H32.2314ZM35.8939 254.272C37.0353 254.272 37.9846 254.648 38.7419 255.4C39.5046 256.152 39.8859 257.088 39.8859 258.208C39.8859 259.333 39.5046 260.272 38.7419 261.024C37.9846 261.776 37.0353 262.152 35.8939 262.152C34.7526 262.152 33.8033 261.776 33.0459 261.024C32.2886 260.272 31.9099 259.333 31.9099 258.208C31.9099 257.088 32.2886 256.152 33.0459 255.4C33.8086 254.648 34.7579 254.272 35.8939 254.272ZM37.8699 256.192C37.3419 255.659 36.6833 255.392 35.8939 255.392C35.1046 255.392 34.4459 255.659 33.9179 256.192C33.3899 256.725 33.1259 257.397 33.1259 258.208C33.1259 259.024 33.3899 259.699 33.9179 260.232C34.4459 260.765 35.1046 261.032 35.8939 261.032C36.6833 261.032 37.3419 260.765 37.8699 260.232C38.3979 259.699 38.6619 259.024 38.6619 258.208C38.6619 257.397 38.3979 256.725 37.8699 256.192ZM48.9029 254.424V258.84C48.9029 259.384 48.8096 259.872 48.6229 260.304C48.4363 260.731 48.1829 261.077 47.8629 261.344C47.5429 261.611 47.1776 261.813 46.7669 261.952C46.3616 262.085 45.9269 262.152 45.4629 262.152C44.9936 262.152 44.5536 262.085 44.1429 261.952C43.7376 261.813 43.3749 261.611 43.0549 261.344C42.7349 261.077 42.4816 260.731 42.2949 260.304C42.1136 259.872 42.0229 259.384 42.0229 258.84V254.424H43.2149V258.728C43.2149 259.485 43.4203 260.059 43.8309 260.448C44.2416 260.837 44.7856 261.032 45.4629 261.032C46.1403 261.032 46.6816 260.837 47.0869 260.448C47.4976 260.059 47.7029 259.485 47.7029 258.728V254.424H48.9029ZM59.0846 254.272C60.2632 254.272 61.1859 254.699 61.8526 255.552V250.48H63.0446V262H61.8526V260.872C61.1912 261.725 60.2686 262.152 59.0846 262.152C58.0126 262.152 57.1139 261.779 56.3886 261.032C55.6632 260.28 55.3006 259.339 55.3006 258.208C55.3006 257.077 55.6632 256.139 56.3886 255.392C57.1139 254.645 58.0126 254.272 59.0846 254.272ZM59.2286 255.392C58.4286 255.392 57.7752 255.664 57.2686 256.208C56.7672 256.747 56.5166 257.413 56.5166 258.208C56.5166 259.003 56.7699 259.672 57.2766 260.216C57.7832 260.76 58.4339 261.032 59.2286 261.032C60.0126 261.032 60.6579 260.765 61.1646 260.232C61.6712 259.693 61.9246 259.019 61.9246 258.208C61.9246 257.403 61.6712 256.733 61.1646 256.2C60.6579 255.661 60.0126 255.392 59.2286 255.392ZM69.2533 254.272C70.3946 254.272 71.344 254.648 72.1013 255.4C72.864 256.152 73.2453 257.088 73.2453 258.208C73.2453 259.333 72.864 260.272 72.1013 261.024C71.344 261.776 70.3946 262.152 69.2533 262.152C68.112 262.152 67.1626 261.776 66.4053 261.024C65.648 260.272 65.2693 259.333 65.2693 258.208C65.2693 257.088 65.648 256.152 66.4053 255.4C67.168 254.648 68.1173 254.272 69.2533 254.272ZM71.2293 256.192C70.7013 255.659 70.0426 255.392 69.2533 255.392C68.464 255.392 67.8053 255.659 67.2773 256.192C66.7493 256.725 66.4853 257.397 66.4853 258.208C66.4853 259.024 66.7493 259.699 67.2773 260.232C67.8053 260.765 68.464 261.032 69.2533 261.032C70.0426 261.032 70.7013 260.765 71.2293 260.232C71.7573 259.699 72.0213 259.024 72.0213 258.208C72.0213 257.397 71.7573 256.725 71.2293 256.192ZM79.2063 254.272C80.145 254.272 80.905 254.549 81.4863 255.104C82.073 255.659 82.3663 256.392 82.3663 257.304V262H81.1743V257.696C81.1743 256.976 80.9823 256.416 80.5983 256.016C80.2196 255.611 79.6836 255.408 78.9903 255.408C78.3343 255.408 77.7823 255.621 77.3343 256.048C76.8916 256.469 76.6703 257.029 76.6703 257.728V262H75.4703V254.424H76.6543V255.504C76.9423 255.077 77.313 254.765 77.7663 254.568C78.2196 254.371 78.6996 254.272 79.2063 254.272ZM85.0663 250.48H86.4583L85.6183 254.536H84.5863L85.0663 250.48ZM94.2393 254.424V255.504H90.9673V259.328C90.9673 259.899 91.1033 260.325 91.3753 260.608C91.6473 260.891 92.0126 261.032 92.4713 261.032C93.042 261.032 93.5726 260.853 94.0633 260.496L94.6233 261.4C93.962 261.901 93.2126 262.152 92.3753 262.152C91.5433 262.152 90.9006 261.92 90.4473 261.456C89.9993 260.987 89.7753 260.285 89.7753 259.352V255.504H88.1193V254.424H89.7753V252.016H90.9673V254.424H94.2393ZM101.811 250.48V255.48C102.104 255.064 102.475 254.76 102.923 254.568C103.371 254.371 103.846 254.272 104.347 254.272C105.286 254.272 106.046 254.549 106.627 255.104C107.214 255.659 107.507 256.392 107.507 257.304V262H106.315V257.696C106.315 256.976 106.123 256.416 105.739 256.016C105.36 255.611 104.824 255.408 104.131 255.408C103.475 255.408 102.923 255.621 102.475 256.048C102.032 256.469 101.811 257.029 101.811 257.728V262H100.611V250.48H101.811ZM117.388 254.424V262H116.196V260.872C115.535 261.725 114.612 262.152 113.428 262.152C112.356 262.152 111.458 261.779 110.732 261.032C110.007 260.28 109.644 259.339 109.644 258.208C109.644 257.077 110.007 256.139 110.732 255.392C111.458 254.645 112.356 254.272 113.428 254.272C114.607 254.272 115.53 254.699 116.196 255.552V254.424H117.388ZM113.572 255.392C112.772 255.392 112.119 255.664 111.612 256.208C111.111 256.747 110.86 257.413 110.86 258.208C110.86 259.003 111.114 259.672 111.62 260.216C112.127 260.76 112.778 261.032 113.572 261.032C114.356 261.032 115.002 260.765 115.508 260.232C116.015 259.693 116.268 259.019 116.268 258.208C116.268 257.403 116.015 256.733 115.508 256.2C115.002 255.661 114.356 255.392 113.572 255.392ZM126.885 254.424L123.661 262.016H122.261L119.029 254.424H120.325L122.973 260.8L125.621 254.424H126.885ZM131.592 254.272C132.621 254.272 133.469 254.637 134.136 255.368C134.808 256.099 135.146 257.037 135.152 258.184C135.152 258.349 135.144 258.499 135.128 258.632H129.056C129.136 259.421 129.424 260.032 129.92 260.464C130.416 260.891 131.021 261.104 131.736 261.104C132.642 261.104 133.442 260.787 134.136 260.152L134.776 260.968C133.949 261.757 132.912 262.152 131.664 262.152C130.538 262.152 129.618 261.789 128.904 261.064C128.189 260.333 127.832 259.384 127.832 258.216C127.832 257.064 128.186 256.12 128.896 255.384C129.605 254.643 130.504 254.272 131.592 254.272ZM131.568 255.336C130.885 255.336 130.322 255.549 129.88 255.976C129.437 256.403 129.168 256.965 129.072 257.664H133.936C133.861 256.955 133.608 256.389 133.176 255.968C132.749 255.547 132.213 255.336 131.568 255.336ZM148.81 254.424V262H147.618V260.872C146.957 261.725 146.034 262.152 144.85 262.152C143.778 262.152 142.88 261.779 142.154 261.032C141.429 260.28 141.066 259.339 141.066 258.208C141.066 257.077 141.429 256.139 142.154 255.392C142.88 254.645 143.778 254.272 144.85 254.272C146.029 254.272 146.952 254.699 147.618 255.552V254.424H148.81ZM144.994 255.392C144.194 255.392 143.541 255.664 143.034 256.208C142.533 256.747 142.282 257.413 142.282 258.208C142.282 259.003 142.536 259.672 143.042 260.216C143.549 260.76 144.2 261.032 144.994 261.032C145.778 261.032 146.424 260.765 146.93 260.232C147.437 259.693 147.69 259.019 147.69 258.208C147.69 257.403 147.437 256.733 146.93 256.2C146.424 255.661 145.778 255.392 144.994 255.392ZM155.347 254.272C156.286 254.272 157.046 254.549 157.627 255.104C158.214 255.659 158.507 256.392 158.507 257.304V262H157.315V257.696C157.315 256.976 157.123 256.416 156.739 256.016C156.36 255.611 155.824 255.408 155.131 255.408C154.475 255.408 153.923 255.621 153.475 256.048C153.032 256.469 152.811 257.029 152.811 257.728V262H151.611V254.424H152.795V255.504C153.083 255.077 153.454 254.765 153.907 254.568C154.36 254.371 154.84 254.272 155.347 254.272ZM167.914 254.424L161.746 265.232H160.426L163.25 260.36L159.77 254.424H161.106L163.93 259.176L166.602 254.424H167.914ZM178.173 254.424V255.504H175.157V262H173.957V255.504H172.229V254.424H173.957V253.128C173.957 252.269 174.162 251.589 174.573 251.088C174.983 250.581 175.618 250.328 176.477 250.328C177.239 250.328 177.93 250.517 178.549 250.896L178.117 251.896C177.61 251.597 177.09 251.448 176.557 251.448C175.623 251.448 175.157 252.008 175.157 253.128V254.424H178.173ZM183.191 254.272C184.332 254.272 185.281 254.648 186.039 255.4C186.801 256.152 187.183 257.088 187.183 258.208C187.183 259.333 186.801 260.272 186.039 261.024C185.281 261.776 184.332 262.152 183.191 262.152C182.049 262.152 181.1 261.776 180.343 261.024C179.585 260.272 179.207 259.333 179.207 258.208C179.207 257.088 179.585 256.152 180.343 255.4C181.105 254.648 182.055 254.272 183.191 254.272ZM185.167 256.192C184.639 255.659 183.98 255.392 183.191 255.392C182.401 255.392 181.743 255.659 181.215 256.192C180.687 256.725 180.423 257.397 180.423 258.208C180.423 259.024 180.687 259.699 181.215 260.232C181.743 260.765 182.401 261.032 183.191 261.032C183.98 261.032 184.639 260.765 185.167 260.232C185.695 259.699 185.959 259.024 185.959 258.208C185.959 257.397 185.695 256.725 185.167 256.192ZM190.608 250.48V262H189.408V250.48H190.608ZM194.608 250.48V262H193.408V250.48H194.608ZM200.816 254.272C201.957 254.272 202.906 254.648 203.664 255.4C204.426 256.152 204.808 257.088 204.808 258.208C204.808 259.333 204.426 260.272 203.664 261.024C202.906 261.776 201.957 262.152 200.816 262.152C199.674 262.152 198.725 261.776 197.968 261.024C197.21 260.272 196.832 259.333 196.832 258.208C196.832 257.088 197.21 256.152 197.968 255.4C198.73 254.648 199.68 254.272 200.816 254.272ZM202.792 256.192C202.264 255.659 201.605 255.392 200.816 255.392C200.026 255.392 199.368 255.659 198.84 256.192C198.312 256.725 198.048 257.397 198.048 258.208C198.048 259.024 198.312 259.699 198.84 260.232C199.368 260.765 200.026 261.032 200.816 261.032C201.605 261.032 202.264 260.765 202.792 260.232C203.32 259.699 203.584 259.024 203.584 258.208C203.584 257.397 203.32 256.725 202.792 256.192ZM213.066 254.424L215.338 260.76L217.618 254.424H218.858L216.058 262H214.642L212.378 255.704L210.122 262H208.73L205.93 254.424H207.202L209.466 260.752L211.722 254.424H213.066ZM221.811 254.424V262H220.611V254.424H221.811ZM221.211 250.888C221.446 250.888 221.646 250.971 221.811 251.136C221.976 251.296 222.059 251.496 222.059 251.736C222.059 251.976 221.976 252.176 221.811 252.336C221.651 252.496 221.451 252.576 221.211 252.576C220.971 252.576 220.771 252.496 220.611 252.336C220.451 252.176 220.371 251.976 220.371 251.736C220.371 251.496 220.451 251.296 220.611 251.136C220.771 250.971 220.971 250.888 221.211 250.888ZM228.347 254.272C229.286 254.272 230.046 254.549 230.627 255.104C231.214 255.659 231.507 256.392 231.507 257.304V262H230.315V257.696C230.315 256.976 230.123 256.416 229.739 256.016C229.36 255.611 228.824 255.408 228.131 255.408C227.475 255.408 226.923 255.621 226.475 256.048C226.032 256.469 225.811 257.029 225.811 257.728V262H224.611V254.424H225.795V255.504C226.083 255.077 226.454 254.765 226.907 254.568C227.36 254.371 227.84 254.272 228.347 254.272ZM237.396 254.272C238.57 254.272 239.471 254.701 240.1 255.56V254.424H241.3V261.48C241.3 262.691 240.932 263.632 240.196 264.304C239.46 264.981 238.492 265.32 237.292 265.32C236.684 265.32 236.095 265.229 235.524 265.048C234.959 264.872 234.484 264.624 234.1 264.304L234.628 263.344C235.412 263.936 236.3 264.232 237.292 264.232C238.135 264.232 238.812 263.997 239.324 263.528C239.842 263.059 240.1 262.392 240.1 261.528V260.752C239.476 261.611 238.575 262.04 237.396 262.04C236.324 262.04 235.431 261.677 234.716 260.952C234.002 260.221 233.644 259.288 233.644 258.152C233.644 257.016 234.002 256.085 234.716 255.36C235.431 254.635 236.324 254.272 237.396 254.272ZM237.532 255.392C236.743 255.392 236.1 255.659 235.604 256.192C235.108 256.72 234.86 257.373 234.86 258.152C234.86 258.936 235.108 259.595 235.604 260.128C236.1 260.656 236.743 260.92 237.532 260.92C238.306 260.92 238.943 260.659 239.444 260.136C239.951 259.608 240.204 258.947 240.204 258.152C240.204 257.368 239.951 256.712 239.444 256.184C238.943 255.656 238.306 255.392 237.532 255.392ZM249.703 255.104L249.183 256.032C248.906 255.84 248.541 255.675 248.087 255.536C247.639 255.392 247.178 255.32 246.703 255.32C246.159 255.32 245.725 255.427 245.399 255.64C245.074 255.853 244.911 256.144 244.911 256.512C244.911 257.099 245.426 257.453 246.455 257.576L247.351 257.688C249.047 257.907 249.895 258.611 249.895 259.8C249.895 260.52 249.594 261.091 248.991 261.512C248.389 261.933 247.578 262.144 246.559 262.144C245.306 262.144 244.253 261.821 243.399 261.176L243.951 260.28C244.655 260.829 245.53 261.104 246.575 261.104C247.226 261.104 247.735 261 248.103 260.792C248.477 260.579 248.663 260.275 248.663 259.88C248.663 259.272 248.135 258.904 247.079 258.776L246.175 258.672C245.338 258.571 244.711 258.341 244.295 257.984C243.879 257.621 243.671 257.152 243.671 256.576C243.671 255.867 243.946 255.307 244.495 254.896C245.045 254.485 245.778 254.28 246.695 254.28C247.277 254.28 247.829 254.355 248.351 254.504C248.874 254.653 249.325 254.853 249.703 255.104ZM262.851 254.424L256.683 265.232H255.363L258.187 260.36L254.707 254.424H256.043L258.867 259.176L261.539 254.424H262.851ZM267.42 254.272C268.449 254.272 269.297 254.637 269.964 255.368C270.636 256.099 270.975 257.037 270.98 258.184C270.98 258.349 270.972 258.499 270.956 258.632H264.884C264.964 259.421 265.252 260.032 265.748 260.464C266.244 260.891 266.849 261.104 267.564 261.104C268.471 261.104 269.271 260.787 269.964 260.152L270.604 260.968C269.777 261.757 268.74 262.152 267.492 262.152C266.367 262.152 265.447 261.789 264.732 261.064C264.017 260.333 263.66 259.384 263.66 258.216C263.66 257.064 264.015 256.12 264.724 255.384C265.433 254.643 266.332 254.272 267.42 254.272ZM267.396 255.336C266.713 255.336 266.151 255.549 265.708 255.976C265.265 256.403 264.996 256.965 264.9 257.664H269.764C269.689 256.955 269.436 256.389 269.004 255.968C268.577 255.547 268.041 255.336 267.396 255.336ZM278.271 254.424V255.504H274.999V259.328C274.999 259.899 275.135 260.325 275.407 260.608C275.679 260.891 276.044 261.032 276.503 261.032C277.073 261.032 277.604 260.853 278.095 260.496L278.655 261.4C277.993 261.901 277.244 262.152 276.407 262.152C275.575 262.152 274.932 261.92 274.479 261.456C274.031 260.987 273.807 260.285 273.807 259.352V255.504H272.151V254.424H273.807V252.016H274.999V254.424H278.271Z" fill="white"/>
<circle cx="154.001" cy="117.036" r="18.0358" fill="white" fill-opacity="0.5"/>
<path d="M177.593 173.757H130.996C122.901 173.757 116.554 166.851 119.491 159.308C123.771 148.318 133.37 135.072 154.783 135.072C176.482 135.072 185.498 148.674 189.243 159.747C191.764 167.202 185.463 173.757 177.593 173.757Z" fill="white" fill-opacity="0.5"/>
<defs>
<filter id="filter0_f_2355_12996" x="75.9093" y="35.7135" width="154.596" height="36.1971" filterUnits="userSpaceOnUse" color-interpolation-filters="sRGB">
<feFlood flood-opacity="0" result="BackgroundImageFix"/>
<feBlend mode="normal" in="SourceGraphic" in2="BackgroundImageFix" result="shape"/>
<feGaussianBlur stdDeviation="7.02192" result="effect1_foregroundBlur_2355_12996"/>
</filter>
<filter id="filter1_f_2355_12996" x="230.772" y="65.295" width="24.3525" height="127.733" filterUnits="userSpaceOnUse" color-interpolation-filters="sRGB">
<feFlood flood-opacity="0" result="BackgroundImageFix"/>
<feBlend mode="normal" in="SourceGraphic" in2="BackgroundImageFix" result="shape"/>
<feGaussianBlur stdDeviation="4.9021" result="effect1_foregroundBlur_2355_12996"/>
</filter>
<filter id="filter2_f_2355_12996" x="51.2896" y="65.2949" width="21.9795" height="127.733" filterUnits="userSpaceOnUse" color-interpolation-filters="sRGB">
<feFlood flood-opacity="0" result="BackgroundImageFix"/>
<feBlend mode="normal" in="SourceGraphic" in2="BackgroundImageFix" result="shape"/>
<feGaussianBlur stdDeviation="4.9021" result="effect1_foregroundBlur_2355_12996"/>
</filter>
<filter id="filter3_f_2355_12996" x="56.3222" y="70.3304" width="11.9103" height="21.7033" filterUnits="userSpaceOnUse" color-interpolation-filters="sRGB">
<feFlood flood-opacity="0" result="BackgroundImageFix"/>
<feBlend mode="normal" in="SourceGraphic" in2="BackgroundImageFix" result="shape"/>
<feGaussianBlur stdDeviation="2.3848" result="effect1_foregroundBlur_2355_12996"/>
</filter>
<filter id="filter4_f_2355_12996" x="235.807" y="70.3305" width="14.2834" height="21.7033" filterUnits="userSpaceOnUse" color-interpolation-filters="sRGB">
<feFlood flood-opacity="0" result="BackgroundImageFix"/>
<feBlend mode="normal" in="SourceGraphic" in2="BackgroundImageFix" result="shape"/>
<feGaussianBlur stdDeviation="2.3848" result="effect1_foregroundBlur_2355_12996"/>
</filter>
</defs>
</svg>
