<svg width="36" height="36" viewBox="0 0 36 36" fill="none" xmlns="http://www.w3.org/2000/svg">
<circle cx="18" cy="18" r="18" fill="white"/>
<path d="M29.2241 18.1122C29.2241 17.138 29.145 16.427 28.9739 15.6898H17.8491V20.087H24.3791C24.2475 21.1798 23.5366 22.8255 21.9567 23.9313L21.9346 24.0785L25.452 26.8034L25.6957 26.8278C27.9338 24.7608 29.2241 21.7195 29.2241 18.1122Z" fill="#4285F4"/>
<path d="M17.8487 29.6978C21.0479 29.6978 23.7336 28.6445 25.6953 26.8278L21.9563 23.9313C20.9558 24.6291 19.6129 25.1162 17.8487 25.1162C14.7154 25.1162 12.056 23.0493 11.108 20.1924L10.969 20.2042L7.3115 23.0347L7.26367 23.1677C9.21214 27.0383 13.2145 29.6978 17.8487 29.6978Z" fill="#34A853"/>
<path d="M11.1081 20.1924C10.858 19.4551 10.7132 18.6651 10.7132 17.8489C10.7132 17.0326 10.858 16.2427 11.095 15.5055L11.0884 15.3484L7.38502 12.4724L7.26385 12.53C6.4608 14.1362 6 15.9399 6 17.8489C6 19.7579 6.4608 21.5615 7.26385 23.1677L11.1081 20.1924Z" fill="#FBBC05"/>
<path d="M17.8487 10.5816C20.0737 10.5816 21.5745 11.5426 22.4303 12.3458L25.7743 9.08072C23.7206 7.17173 21.0479 6 17.8487 6C13.2145 6 9.21214 8.6594 7.26367 12.53L11.0948 15.5055C12.056 12.6486 14.7154 10.5816 17.8487 10.5816Z" fill="#EB4335"/>
</svg>
