<svg width="24" height="24" viewBox="0 0 24 24" fill="none" xmlns="http://www.w3.org/2000/svg">
<path d="M23.2241 12.1122C23.2241 11.138 23.145 10.427 22.9739 9.68979H11.8491V14.087H18.3791C18.2475 15.1798 17.5366 16.8255 15.9567 17.9313L15.9346 18.0785L19.452 20.8034L19.6957 20.8278C21.9338 18.7608 23.2241 15.7195 23.2241 12.1122Z" fill="#4285F4"/>
<path d="M11.8487 23.6978C15.0479 23.6978 17.7336 22.6445 19.6953 20.8277L15.9563 17.9313C14.9558 18.629 13.6129 19.1162 11.8487 19.1162C8.71537 19.1162 6.05597 17.0493 5.10797 14.1924L4.96901 14.2042L1.3115 17.0347L1.26367 17.1677C3.21214 21.0383 7.21445 23.6978 11.8487 23.6978Z" fill="#34A853"/>
<path d="M5.10815 14.1924C4.85801 13.4551 4.71325 12.6651 4.71325 11.8489C4.71325 11.0326 4.85801 10.2427 5.09499 9.50545L5.08836 9.34843L1.38502 6.47238L1.26385 6.53002C0.460796 8.13622 0 9.93993 0 11.8489C0 13.7579 0.460796 15.5615 1.26385 17.1677L5.10815 14.1924Z" fill="#FBBC05"/>
<path d="M11.8487 4.58155C14.0737 4.58155 15.5745 5.54262 16.4303 6.34577L19.7743 3.08072C17.7206 1.17173 15.0479 0 11.8487 0C7.21445 0 3.21214 2.6594 1.26367 6.53002L5.09481 9.50546C6.05597 6.64855 8.71537 4.58155 11.8487 4.58155Z" fill="#EB4335"/>
</svg>
