<svg width="32" height="32" viewBox="0 0 32 32" fill="currentColor" xmlns="http://www.w3.org/2000/svg">
<path d="M24.55 9.175C24.55 10.1277 23.7777 10.9 22.825 10.9C21.8723 10.9 21.1 10.1277 21.1 9.175C21.1 8.22231 21.8723 7.45 22.825 7.45C23.7777 7.45 24.55 8.22231 24.55 9.175Z" fill="currentColor"/>
<path fill-rule="evenodd" clip-rule="evenodd" d="M16.5 21.25C19.6756 21.25 22.25 18.6756 22.25 15.5C22.25 12.3244 19.6756 9.75 16.5 9.75C13.3244 9.75 10.75 12.3244 10.75 15.5C10.75 18.6756 13.3244 21.25 16.5 21.25ZM16.5 18.95C18.4054 18.95 19.95 17.4054 19.95 15.5C19.95 13.5946 18.4054 12.05 16.5 12.05C14.5946 12.05 13.05 13.5946 13.05 15.5C13.05 17.4054 14.5946 18.95 16.5 18.95Z" fill="currentColor"/>
<path fill-rule="evenodd" clip-rule="evenodd" d="M5 15.04C5 11.1756 5 9.24346 5.75205 7.76747C6.41358 6.46915 7.46915 5.41358 8.76747 4.75205C10.2435 4 12.1756 4 16.04 4H16.96C20.8244 4 22.7565 4 24.2325 4.75205C25.5309 5.41358 26.5864 6.46915 27.2479 7.76747C28 9.24346 28 11.1756 28 15.04V15.96C28 19.8244 28 21.7565 27.2479 23.2325C26.5864 24.5309 25.5309 25.5864 24.2325 26.2479C22.7565 27 20.8244 27 16.96 27H16.04C12.1756 27 10.2435 27 8.76747 26.2479C7.46915 25.5864 6.41358 24.5309 5.75205 23.2325C5 21.7565 5 19.8244 5 15.96V15.04ZM16.04 6.3H16.96C18.9301 6.3 20.2694 6.30179 21.3046 6.38637C22.313 6.46875 22.8286 6.61808 23.1884 6.80137C24.0539 7.24239 24.7576 7.9461 25.1986 8.81164C25.3819 9.17136 25.5312 9.68703 25.6136 10.6954C25.6982 11.7306 25.7 13.0699 25.7 15.04V15.96C25.7 17.9301 25.6982 19.2694 25.6136 20.3046C25.5312 21.313 25.3819 21.8286 25.1986 22.1884C24.7576 23.0539 24.0539 23.7576 23.1884 24.1986C22.8286 24.3819 22.313 24.5312 21.3046 24.6136C20.2694 24.6982 18.9301 24.7 16.96 24.7H16.04C14.0699 24.7 12.7306 24.6982 11.6954 24.6136C10.687 24.5312 10.1714 24.3819 9.81164 24.1986C8.9461 23.7576 8.24239 23.0539 7.80137 22.1884C7.61808 21.8286 7.46875 21.313 7.38637 20.3046C7.30179 19.2694 7.3 17.9301 7.3 15.96V15.04C7.3 13.0699 7.30179 11.7306 7.38637 10.6954C7.46875 9.68703 7.61808 9.17136 7.80137 8.81164C8.24239 7.9461 8.9461 7.24239 9.81164 6.80137C10.1714 6.61808 10.687 6.46875 11.6954 6.38637C12.7306 6.30179 14.0699 6.3 16.04 6.3Z" fill="currentColor"/>
</svg>
