<svg width="54" height="54" viewBox="0 0 54 54" fill="none" xmlns="http://www.w3.org/2000/svg">
<rect width="54" height="54" rx="27" fill="#EC455A"/>
<path d="M36.515 18.7681C35.9653 18.2076 35.3125 17.7629 34.5941 17.4595C33.8756 17.1562 33.1055 17 32.3279 17C31.5502 17 30.7801 17.1562 30.0617 17.4595C29.3432 17.7629 28.6905 18.2076 28.1407 18.7681L26.9997 19.9309L25.8587 18.7681C24.7482 17.6364 23.2421 17.0006 21.6716 17.0006C20.1011 17.0006 18.5949 17.6364 17.4844 18.7681C16.3739 19.8999 15.75 21.4349 15.75 23.0354C15.75 24.6359 16.3739 26.1709 17.4844 27.3027L18.6254 28.4655L26.9997 37L35.3741 28.4655L36.515 27.3027C37.0651 26.7424 37.5014 26.0771 37.7991 25.3449C38.0968 24.6128 38.25 23.828 38.25 23.0354C38.25 22.2429 38.0968 21.4581 37.7991 20.7259C37.5014 19.9937 37.0651 19.3284 36.515 18.7681Z" fill="white"/>
</svg>
