<svg width="25" height="24" viewBox="0 0 25 24" fill="none" xmlns="http://www.w3.org/2000/svg">
<path d="M20.196 5.41452C19.7562 4.96607 19.234 4.61034 18.6592 4.36763C18.0845 4.12492 17.4684 4 16.8463 4C16.2241 4 15.6081 4.12492 15.0333 4.36763C14.4586 4.61034 13.9364 4.96607 13.4965 5.41452L12.5838 6.34476L11.671 5.41452C10.7826 4.50912 9.57763 4.00047 8.32123 4.00047C7.06484 4.00047 5.8599 4.50912 4.97149 5.41452C4.08309 6.31992 3.58398 7.5479 3.58398 8.82833C3.58398 10.1088 4.08309 11.3367 4.97149 12.2421L5.88427 13.1724L12.5838 20L19.2832 13.1724L20.196 12.2421C20.636 11.7939 20.9851 11.2617 21.2233 10.676C21.4614 10.0902 21.584 9.46237 21.584 8.82833C21.584 8.19428 21.4614 7.56645 21.2233 6.9807C20.9851 6.39494 20.636 5.86275 20.196 5.41452Z" fill="#EC455A"/>
</svg>
