<svg width="54" height="54" viewBox="0 0 54 54" fill="none" xmlns="http://www.w3.org/2000/svg">
<rect width="54" height="54" rx="27" fill="#FFE0E4"/>
<path d="M33.3434 11.012C32.9768 10.6383 32.5417 10.3419 32.0627 10.1396C31.5837 9.93735 31.0704 9.83325 30.5519 9.83325C30.0335 9.83325 29.5201 9.93735 29.0411 10.1396C28.5621 10.3419 28.127 10.6383 27.7605 11.012L26.9998 11.7872L26.2392 11.012C25.4988 10.2575 24.4947 9.83364 23.4477 9.83364C22.4007 9.83364 21.3966 10.2575 20.6563 11.012C19.9159 11.7665 19.5 12.7898 19.5 13.8569C19.5 14.9239 19.9159 15.9472 20.6563 16.7017L21.4169 17.4769L26.9998 23.1666L32.5827 17.4769L33.3434 16.7017C33.71 16.3282 34.0009 15.8847 34.1994 15.3966C34.3979 14.9084 34.5 14.3852 34.5 13.8569C34.5 13.3285 34.3979 12.8053 34.1994 12.3172C34.0009 11.829 33.71 11.3855 33.3434 11.012Z" fill="#EC455A"/>
</svg>
