<svg width="20" height="16" viewBox="0 0 20 16" fill="none" xmlns="http://www.w3.org/2000/svg">
<path d="M18.2604 3.42685L18.5 3.28068V3C18.5 2.60218 18.342 2.22065 18.0607 1.93934C17.7794 1.65804 17.3978 1.5 17 1.5H3C2.60217 1.5 2.22064 1.65804 1.93934 1.93934C1.65804 2.22064 1.5 2.60217 1.5 3V3.28068L1.73962 3.42685L9.73962 8.30685L10 8.46568L10.2604 8.30685L18.2604 3.42685ZM2.26068 4.85333L1.5 4.38858V5.28V13C1.5 13.3978 1.65804 13.7794 1.93934 14.0607C2.22065 14.342 2.60218 14.5 3 14.5H17C17.3978 14.5 17.7794 14.342 18.0607 14.0607C18.342 13.7794 18.5 13.3978 18.5 13V5.28V4.39105L17.7403 4.85271L10.2259 9.4193C10.1509 9.46168 10.0662 9.48397 9.98 9.48397C9.89395 9.48397 9.80938 9.46177 9.73447 9.41954L2.26068 4.85333ZM3 0.5H17C17.663 0.5 18.2989 0.763392 18.7678 1.23223C19.2366 1.70107 19.5 2.33696 19.5 3V13C19.5 13.663 19.2366 14.2989 18.7678 14.7678C18.2989 15.2366 17.663 15.5 17 15.5H3C2.33696 15.5 1.70107 15.2366 1.23223 14.7678C0.763392 14.2989 0.5 13.663 0.5 13V3C0.5 2.33696 0.763392 1.70107 1.23223 1.23223C1.70107 0.763392 2.33696 0.5 3 0.5Z" fill="white" stroke="#00A0FF"/>
</svg>
