<svg width="43" height="18" viewBox="0 0 43 18" fill="none" xmlns="http://www.w3.org/2000/svg">
<path d="M0.10225 9.822C0.10225 8.326 0.439583 6.984 1.11425 5.796C1.78892 4.59333 2.70558 3.65467 3.86425 2.98C5.03758 2.30533 6.33558 1.968 7.75825 1.968C9.43025 1.968 10.8896 2.37133 12.1363 3.178C13.3829 3.98467 14.2923 5.12867 14.8643 6.61H12.4663C12.0409 5.686 11.4249 4.97467 10.6183 4.476C9.82625 3.97733 8.87292 3.728 7.75825 3.728C6.68758 3.728 5.72692 3.97733 4.87625 4.476C4.02558 4.97467 3.35825 5.686 2.87425 6.61C2.39025 7.51933 2.14825 8.59 2.14825 9.822C2.14825 11.0393 2.39025 12.11 2.87425 13.034C3.35825 13.9433 4.02558 14.6473 4.87625 15.146C5.72692 15.6447 6.68758 15.894 7.75825 15.894C8.87292 15.894 9.82625 15.652 10.6183 15.168C11.4249 14.6693 12.0409 13.958 12.4663 13.034H14.8643C14.2923 14.5007 13.3829 15.6373 12.1363 16.444C10.8896 17.236 9.43025 17.632 7.75825 17.632C6.33558 17.632 5.03758 17.302 3.86425 16.642C2.70558 15.9673 1.78892 15.036 1.11425 13.848C0.439583 12.66 0.10225 11.318 0.10225 9.822ZM19.8464 7.402C20.1984 6.71267 20.6971 6.17733 21.3424 5.796C22.0024 5.41467 22.8017 5.224 23.7404 5.224V7.292H23.2124C20.9684 7.292 19.8464 8.50933 19.8464 10.944V17.5H17.8444V5.444H19.8464V7.402ZM27.0854 3.486C26.7041 3.486 26.3814 3.354 26.1174 3.09C25.8534 2.826 25.7214 2.50333 25.7214 2.122C25.7214 1.74067 25.8534 1.418 26.1174 1.154C26.3814 0.889999 26.7041 0.757999 27.0854 0.757999C27.4521 0.757999 27.7601 0.889999 28.0094 1.154C28.2734 1.418 28.4054 1.74067 28.4054 2.122C28.4054 2.50333 28.2734 2.826 28.0094 3.09C27.7601 3.354 27.4521 3.486 27.0854 3.486ZM28.0534 5.444V17.5H26.0514V5.444H28.0534ZM36.7235 17.698C35.5942 17.698 34.5675 17.4413 33.6435 16.928C32.7342 16.4147 32.0155 15.6887 31.4875 14.75C30.9742 13.7967 30.7175 12.6967 30.7175 11.45C30.7175 10.218 30.9815 9.13267 31.5095 8.194C32.0522 7.24067 32.7855 6.51467 33.7095 6.016C34.6335 5.50267 35.6675 5.246 36.8115 5.246C37.9555 5.246 38.9895 5.50267 39.9135 6.016C40.8375 6.51467 41.5635 7.23333 42.0915 8.172C42.6342 9.11067 42.9055 10.2033 42.9055 11.45C42.9055 12.6967 42.6268 13.7967 42.0695 14.75C41.5268 15.6887 40.7862 16.4147 39.8475 16.928C38.9088 17.4413 37.8675 17.698 36.7235 17.698ZM36.7235 15.938C37.4422 15.938 38.1168 15.7693 38.7475 15.432C39.3782 15.0947 39.8842 14.5887 40.2655 13.914C40.6615 13.2393 40.8595 12.418 40.8595 11.45C40.8595 10.482 40.6688 9.66067 40.2875 8.986C39.9062 8.31133 39.4075 7.81267 38.7915 7.49C38.1755 7.15267 37.5082 6.984 36.7895 6.984C36.0562 6.984 35.3815 7.15267 34.7655 7.49C34.1642 7.81267 33.6802 8.31133 33.3135 8.986C32.9468 9.66067 32.7635 10.482 32.7635 11.45C32.7635 12.4327 32.9395 13.2613 33.2915 13.936C33.6582 14.6107 34.1422 15.1167 34.7435 15.454C35.3448 15.7767 36.0048 15.938 36.7235 15.938Z" fill="white"/>
</svg>
