<svg width="211" height="151" viewBox="0 0 211 151" fill="none" xmlns="http://www.w3.org/2000/svg">
<rect x="36.0776" y="30.0105" width="141.502" height="120.94" rx="22.2287" fill="#CAEBFF" fill-opacity="0.25"/>
<circle cx="4.86101" cy="85.876" r="4.78337" fill="#CAEBFF" fill-opacity="0.25"/>
<circle cx="204.539" cy="96.8036" r="3.8267" fill="#CAEBFF" fill-opacity="0.25"/>
<circle cx="208.751" cy="55.5764" r="1.74769" fill="#CAEBFF" fill-opacity="0.25"/>
<circle cx="135.551" cy="3.34836" r="3.34836" fill="#CAEBFF" fill-opacity="0.25"/>
<circle cx="25.1342" cy="23.6584" r="4.78337" fill="#CAEBFF" fill-opacity="0.25"/>
<circle cx="13.8753" cy="13.7976" r="1.91335" fill="#CAEBFF" fill-opacity="0.25"/>
<path fill-rule="evenodd" clip-rule="evenodd" d="M103.329 63.4132C105.24 60.6563 109.316 60.6563 111.227 63.4132L141.932 107.716C144.141 110.902 141.86 115.257 137.983 115.257H76.5731C72.6963 115.257 70.4159 110.902 72.6243 107.716L103.329 63.4132ZM103.868 78.9598C103.777 77.1379 105.23 75.6108 107.054 75.6108C108.878 75.6108 110.331 77.1379 110.24 78.9598L109.401 95.7324C109.339 96.9831 108.306 97.9651 107.054 97.9651C105.802 97.9651 104.769 96.9831 104.707 95.7324L103.868 78.9598ZM107.054 106.907C108.289 106.907 109.289 105.906 109.289 104.671C109.289 103.437 108.289 102.436 107.054 102.436C105.819 102.436 104.819 103.437 104.819 104.671C104.819 105.906 105.819 106.907 107.054 106.907Z" fill="#878C94"/>
</svg>
