<svg width="55" height="24" viewBox="0 0 55 24" fill="none" xmlns="http://www.w3.org/2000/svg">
<path d="M33 2.82843C33.2626 2.56578 33.5744 2.35744 33.9176 2.2153C34.2608 2.07316 34.6286 2 35 2C35.3714 2 35.7392 2.07316 36.0824 2.2153C36.4256 2.35744 36.7374 2.56578 37 2.82843C37.2626 3.09107 37.471 3.40287 37.6131 3.74603C37.7553 4.0892 37.8284 4.45699 37.8284 4.82843C37.8284 5.19986 37.7553 5.56766 37.6131 5.91082C37.471 6.25398 37.2626 6.56578 37 6.82843L23.5 20.3284L18 21.8284L19.5 16.3284L33 2.82843Z" stroke="white" stroke-width="2" stroke-linecap="round" stroke-linejoin="round"/>
</svg>
