<svg width="309" height="224" viewBox="0 0 309 224" fill="none" xmlns="http://www.w3.org/2000/svg">
<g filter="url(#filter0_d_2476_13250)">
<g filter="url(#filter1_f_2476_13250)">
<rect x="93.9531" y="49.7574" width="126.509" height="8.10938" rx="3.17974" fill="white" fill-opacity="0.2"/>
</g>
<g filter="url(#filter2_f_2476_13250)">
<rect x="244.578" y="183.224" width="108.125" height="4.74407" rx="2.37204" transform="rotate(-90 244.578 183.224)" fill="white" fill-opacity="0.2"/>
</g>
<g filter="url(#filter3_f_2476_13250)">
<rect x="65.0938" y="183.224" width="108.125" height="2.37204" rx="1.18602" transform="rotate(-90 65.0938 183.224)" fill="white" fill-opacity="0.58"/>
</g>
<g filter="url(#filter4_f_2476_13250)">
<rect x="65.0918" y="87.2641" width="12.1641" height="2.37204" rx="1.18602" transform="rotate(-90 65.0918 87.2641)" fill="white" fill-opacity="0.2"/>
</g>
<g filter="url(#filter5_f_2476_13250)">
<rect x="244.578" y="87.2642" width="12.1641" height="4.74407" rx="2.37204" transform="rotate(-90 244.578 87.2642)" fill="white" fill-opacity="0.2"/>
</g>
<rect x="56" y="43" width="202.414" height="173" rx="31.7974" fill="#CAEBFF" fill-opacity="0.25"/>
<path d="M141 102V164" stroke="white" stroke-dasharray="5 5"/>
<path fill-rule="evenodd" clip-rule="evenodd" d="M212 109V157C208.134 157 205 160.134 205 164H108C108 160.134 104.866 157 101 157V109C104.866 109 108 105.866 108 102H205C205 105.866 208.134 109 212 109Z" fill="white" fill-opacity="0.5"/>
<rect x="151" y="118" width="49" height="2.744" rx="1.372" fill="white" fill-opacity="0.25"/>
<rect x="151" y="131.744" width="49" height="2.744" rx="1.372" fill="white" fill-opacity="0.25"/>
<rect x="151" y="145.488" width="49" height="2.744" rx="1.372" fill="white" fill-opacity="0.25"/>
<circle cx="10.8424" cy="122.842" r="6.84244" fill="#CAEBFF" fill-opacity="0.25"/>
<circle cx="296.474" cy="138.474" r="5.47395" fill="#CAEBFF" fill-opacity="0.25"/>
<circle cx="302.5" cy="79.5" r="2.5" fill="#CAEBFF" fill-opacity="0.25"/>
<circle cx="197.79" cy="4.78971" r="4.78971" fill="#CAEBFF" fill-opacity="0.25"/>
<circle cx="39.8424" cy="33.8424" r="6.84244" fill="#CAEBFF" fill-opacity="0.25"/>
<circle cx="23.737" cy="19.737" r="2.73698" fill="#CAEBFF" fill-opacity="0.25"/>
</g>
<defs>
<filter id="filter0_d_2476_13250" x="0" y="0" width="309" height="224" filterUnits="userSpaceOnUse" color-interpolation-filters="sRGB">
<feFlood flood-opacity="0" result="BackgroundImageFix"/>
<feColorMatrix in="SourceAlpha" type="matrix" values="0 0 0 0 0 0 0 0 0 0 0 0 0 0 0 0 0 0 127 0" result="hardAlpha"/>
<feOffset dy="4"/>
<feGaussianBlur stdDeviation="2"/>
<feComposite in2="hardAlpha" operator="out"/>
<feColorMatrix type="matrix" values="0 0 0 0 0 0 0 0 0 0 0 0 0 0 0 0 0 0 0.25 0"/>
<feBlend mode="normal" in2="BackgroundImageFix" result="effect1_dropShadow_2476_13250"/>
<feBlend mode="normal" in="SourceGraphic" in2="effect1_dropShadow_2476_13250" result="shape"/>
</filter>
<filter id="filter1_f_2476_13250" x="79.9093" y="35.7135" width="154.596" height="36.1971" filterUnits="userSpaceOnUse" color-interpolation-filters="sRGB">
<feFlood flood-opacity="0" result="BackgroundImageFix"/>
<feBlend mode="normal" in="SourceGraphic" in2="BackgroundImageFix" result="shape"/>
<feGaussianBlur stdDeviation="7.02192" result="effect1_foregroundBlur_2476_13250"/>
</filter>
<filter id="filter2_f_2476_13250" x="234.774" y="65.295" width="24.3506" height="127.733" filterUnits="userSpaceOnUse" color-interpolation-filters="sRGB">
<feFlood flood-opacity="0" result="BackgroundImageFix"/>
<feBlend mode="normal" in="SourceGraphic" in2="BackgroundImageFix" result="shape"/>
<feGaussianBlur stdDeviation="4.9021" result="effect1_foregroundBlur_2476_13250"/>
</filter>
<filter id="filter3_f_2476_13250" x="55.2896" y="65.2949" width="21.9795" height="127.733" filterUnits="userSpaceOnUse" color-interpolation-filters="sRGB">
<feFlood flood-opacity="0" result="BackgroundImageFix"/>
<feBlend mode="normal" in="SourceGraphic" in2="BackgroundImageFix" result="shape"/>
<feGaussianBlur stdDeviation="4.9021" result="effect1_foregroundBlur_2476_13250"/>
</filter>
<filter id="filter4_f_2476_13250" x="60.3222" y="70.3304" width="11.9103" height="21.7033" filterUnits="userSpaceOnUse" color-interpolation-filters="sRGB">
<feFlood flood-opacity="0" result="BackgroundImageFix"/>
<feBlend mode="normal" in="SourceGraphic" in2="BackgroundImageFix" result="shape"/>
<feGaussianBlur stdDeviation="2.3848" result="effect1_foregroundBlur_2476_13250"/>
</filter>
<filter id="filter5_f_2476_13250" x="239.809" y="70.3305" width="14.2814" height="21.7033" filterUnits="userSpaceOnUse" color-interpolation-filters="sRGB">
<feFlood flood-opacity="0" result="BackgroundImageFix"/>
<feBlend mode="normal" in="SourceGraphic" in2="BackgroundImageFix" result="shape"/>
<feGaussianBlur stdDeviation="2.3848" result="effect1_foregroundBlur_2476_13250"/>
</filter>
</defs>
</svg>
