<svg width="35" height="20" viewBox="0 0 35 20" fill="none" xmlns="http://www.w3.org/2000/svg">
<path d="M10.0001 6.17L5.49014 1.66C7.07014 0.61 8.96014 0 11.0001 0C16.5201 0 21.0001 4.48 21.0001 10C21.0001 12.04 20.3901 13.93 19.3401 15.51L17.8801 14.05C18.5901 12.87 19.0001 11.48 19.0001 10C19.0001 6.65 16.9301 3.78 14.0001 2.59V3C14.0001 4.1 13.1001 5 12.0001 5H10.0001V6.17ZM20.1901 19.19L18.7801 20.6L16.5101 18.33C14.9301 19.39 13.0401 20 11.0001 20C5.48014 20 1.00014 15.52 1.00014 10C1.00014 7.96 1.61014 6.07 2.66014 4.49L0.390137 2.22L1.80014 0.81L20.1901 19.19ZM10.0001 16C8.90014 16 8.00014 15.1 8.00014 14V13L3.21014 8.21C3.08014 8.79 3.00014 9.38 3.00014 10C3.00014 14.08 6.05014 17.44 10.0001 17.93V16Z" fill="white"/>
</svg>
