<svg width="160" height="160" viewBox="0 0 160 160" fill="none" xmlns="http://www.w3.org/2000/svg">
<path fill-rule="evenodd" clip-rule="evenodd" d="M0 0.0873319L0.0873319 0H78.0873L160 81.9126V159.206L159.559 159.647L0 0.0873319Z" fill="url(#paint0_linear_2326_643)"/>
<path d="M61.2264 15.949L64.1567 18.8792C64.975 19.6976 65.4172 20.5093 65.4832 21.3145C65.5558 22.1196 65.2572 22.8572 64.5873 23.527C64.0164 24.0979 63.3598 24.3784 62.6173 24.3685C61.8781 24.3553 61.1456 24.0484 60.4196 23.4478L59.7761 28.358L58.1031 26.685L58.8406 21.9085L58.4348 21.5026L55.6778 24.2596L54.2968 22.8786L61.2264 15.949ZM62.8598 20.1265L61.3353 18.602L59.6376 20.2998L61.1621 21.8243C61.9243 22.5866 62.5926 22.6806 63.1667 22.1064C63.7244 21.5488 63.6221 20.8888 62.8598 20.1265ZM67.4699 33.5175L66.2028 34.7846L61.0253 29.6072L67.955 22.6775L73.0928 27.8154L71.8257 29.0825L68.0688 25.3256L66.5344 26.8601L70.118 30.4437L68.8509 31.7108L65.2673 28.1272L63.6735 29.721L67.4699 33.5175ZM77.935 32.4001C78.5752 33.0403 79.0206 33.763 79.2714 34.5681C79.5288 35.3733 79.5552 36.1586 79.3506 36.9242L77.4351 36.4639C77.5407 35.9623 77.5225 35.4756 77.3806 35.0037C77.242 34.5285 76.9813 34.0996 76.5986 33.7168C75.965 33.0832 75.2308 32.7714 74.3959 32.7813C73.5611 32.7912 72.8104 33.1294 72.1438 33.796C71.464 34.4823 71.1241 35.2413 71.1241 36.0729C71.1274 36.9011 71.4409 37.6271 72.0646 38.2507C72.4441 38.6302 72.8681 38.8926 73.3367 39.0378C73.8086 39.1796 74.3035 39.2027 74.8216 39.107L75.1384 41.0473C74.3662 41.1925 73.5957 41.1414 72.8269 40.8939C72.0646 40.6464 71.3716 40.2108 70.748 39.5872C70.2233 39.0625 69.824 38.485 69.5501 37.8548C69.2795 37.2212 69.1409 36.5876 69.1343 35.9541C69.1343 35.3205 69.2663 34.6902 69.5303 34.0633C69.7976 33.4396 70.1886 32.8704 70.7034 32.3556C71.2182 31.8408 71.7874 31.4498 72.4111 31.1825C73.038 30.9185 73.6667 30.7882 74.2969 30.7915C74.9338 30.7948 75.5674 30.9334 76.1976 31.2073C76.8312 31.4778 77.4103 31.8755 77.935 32.4001ZM85.2629 39.7281C85.9625 40.4276 86.4344 41.2097 86.6786 42.0743C86.9261 42.9421 86.9294 43.8034 86.6885 44.658C86.4542 45.5127 85.9955 46.2816 85.3124 46.9646C84.6294 47.6477 83.8589 48.108 83.0009 48.3456C82.1495 48.5832 81.2899 48.5782 80.4221 48.3307C79.5575 48.0866 78.7755 47.6147 78.0759 46.9151C77.5512 46.3904 77.1536 45.8113 76.883 45.1778C76.6124 44.5442 76.4755 43.909 76.4722 43.2721C76.4722 42.6385 76.6025 42.0099 76.8632 41.3863C77.1305 40.7626 77.5199 40.195 78.0314 39.6835C78.5428 39.1721 79.1088 38.7843 79.7291 38.5203C80.3561 38.2564 80.9864 38.1244 81.6199 38.1244C82.2568 38.1277 82.892 38.2646 83.5256 38.5352C84.1591 38.8058 84.7383 39.2034 85.2629 39.7281ZM83.9364 41.0546C83.2962 40.4145 82.5587 40.0993 81.7239 40.1092C80.8923 40.1158 80.1416 40.454 79.4717 41.1239C78.8019 41.7938 78.462 42.5461 78.4521 43.381C78.4455 44.2126 78.7623 44.9484 79.4024 45.5886C80.0459 46.2321 80.7818 46.5488 81.61 46.5389C82.4449 46.529 83.1972 46.1892 83.8671 45.5193C84.537 44.8494 84.8752 44.0987 84.8818 43.2672C84.895 42.4356 84.5799 41.6981 83.9364 41.0546ZM97.6635 52.3861L90.7339 59.3157L89.3529 57.9347L94.5848 52.7028L88.3085 55.5539L86.8483 54.0937L89.6598 47.857L84.4675 53.0493L83.0865 51.6683L90.0162 44.7387L92.0406 46.7631L89.1648 53.2424L95.6391 50.3616L97.6635 52.3861ZM106.886 61.6088L99.9567 68.5385L98.5757 67.1575L103.808 61.9256L97.5313 64.7767L96.0711 63.3165L98.8826 57.0798L93.6903 62.2721L92.3093 60.8911L99.2389 53.9615L101.263 55.9859L98.3876 62.4651L104.862 59.5844L106.886 61.6088ZM107.977 74.0242L106.709 75.2913L101.532 70.1139L108.462 63.1842L113.6 68.3221L112.332 69.5892L108.576 65.8324L107.041 67.3668L110.625 70.9504L109.358 72.2175L105.774 68.6339L104.18 70.2277L107.977 74.0242ZM121.252 75.9745L114.322 82.9042L113.026 81.6074L114.139 73.465L109.506 78.0881L108.125 76.7071L115.055 69.7775L116.347 71.0693L115.238 79.2166L119.866 74.5886L121.252 75.9745ZM122.828 77.5501L125.684 80.4061C126.769 81.4918 127.324 82.6797 127.347 83.9699C127.37 85.2602 126.86 86.4267 125.817 87.4694C124.774 88.5122 123.608 89.022 122.318 88.9989C121.028 88.9758 119.84 88.4214 118.754 87.3358L115.898 84.4798L122.828 77.5501ZM124.377 81.6832L122.917 80.223L118.571 84.5689L120.031 86.029C120.737 86.7352 121.473 87.0751 122.239 87.0487C123.007 87.019 123.719 86.6774 124.372 86.0241C125.032 85.3641 125.373 84.653 125.396 83.8907C125.423 83.1252 125.083 82.3893 124.377 81.6832ZM130.038 96.0854L128.771 97.3525L123.593 92.1751L130.523 85.2454L135.661 90.3833L134.394 91.6504L130.637 87.8935L129.102 89.428L132.686 93.0116L131.419 94.2787L127.835 90.6951L126.241 92.2889L130.038 96.0854ZM137.116 91.8386L139.972 94.6946C141.058 95.7803 141.612 96.9682 141.635 98.2585C141.658 99.5487 141.149 100.715 140.106 101.758C139.063 102.801 137.897 103.311 136.606 103.287C135.316 103.264 134.128 102.71 133.042 101.624L130.186 98.7683L137.116 91.8386ZM138.665 95.9717L137.205 94.5115L132.859 98.8574L134.319 100.318C135.026 101.024 135.762 101.364 136.527 101.337C137.296 101.308 138.007 100.966 138.66 100.313C139.32 99.6526 139.662 98.9415 139.685 98.1793C139.711 97.4137 139.372 96.6778 138.665 95.9717Z" fill="white"/>
<defs>
<linearGradient id="paint0_linear_2326_643" x1="91.9995" y1="1.85287e-05" x2="81.7065" y2="158.98" gradientUnits="userSpaceOnUse">
<stop stop-color="#FDBC8D"/>
<stop offset="1" stop-color="#F24B77"/>
</linearGradient>
</defs>
</svg>
