<svg width="138" height="138" viewBox="0 0 138 138" fill="none" xmlns="http://www.w3.org/2000/svg">
<path fill-rule="evenodd" clip-rule="evenodd" d="M138 138L0 0H56.0874L138 81.9126V138Z" fill="url(#paint0_linear_5425_21217)"/>
<path d="M46.1166 24.4801L47.2848 20.1441L46.4235 19.2829L43.6715 22.0349L42.5429 20.9064L49.4231 14.0262L51.7989 16.4021C52.3269 16.9301 52.68 17.468 52.8582 18.0157C53.043 18.5701 53.0694 19.0915 52.9374 19.5799C52.812 20.0748 52.5579 20.5137 52.1751 20.8965C51.7263 21.3453 51.1852 21.6224 50.5516 21.728C49.9312 21.8336 49.2845 21.6818 48.6113 21.2727L47.463 25.8264L46.1166 24.4801ZM47.3244 18.382L48.5717 19.6294C48.9941 20.0517 49.4165 20.2629 49.8388 20.2629C50.2678 20.2695 50.6605 20.0946 51.0169 19.7382C51.3733 19.3819 51.5449 18.9991 51.5317 18.5899C51.5251 18.1741 51.3073 17.7517 50.8783 17.3228L49.631 16.0754L47.3244 18.382ZM56.658 29.2995C56.4534 29.5041 56.2554 29.6757 56.064 29.8143L51.8963 25.6466C51.4937 26.1152 51.3056 26.6267 51.332 27.181C51.3584 27.7354 51.5828 28.2238 52.0052 28.6462C52.6124 29.2533 53.2954 29.4282 54.0544 29.1708L55.272 30.3885C54.6055 30.7251 53.8927 30.8373 53.1337 30.7251C52.388 30.6129 51.695 30.2367 51.0549 29.5965C50.5335 29.0751 50.1804 28.4911 49.9956 27.8443C49.824 27.1975 49.8306 26.5442 50.0154 25.8842C50.2134 25.2242 50.5929 24.6138 51.1538 24.0528C51.7148 23.4918 52.3187 23.1123 52.9655 22.9144C53.6254 22.7164 54.2755 22.7065 54.9157 22.8847C55.5624 23.0695 56.1531 23.4291 56.6877 23.9637C57.2024 24.4785 57.5489 25.0493 57.7271 25.6763C57.9053 26.3033 57.902 26.9336 57.7172 27.5671C57.539 28.1941 57.1859 28.7716 56.658 29.2995ZM55.8363 27.7651C56.2455 27.3427 56.4303 26.861 56.3907 26.3198C56.3511 25.7786 56.1168 25.2935 55.6878 24.8646C55.2984 24.4752 54.8398 24.2673 54.3118 24.2409C53.7904 24.2079 53.2921 24.3762 52.817 24.7458L55.8363 27.7651ZM57.2637 30.1626C57.8247 29.6017 58.4285 29.2222 59.0753 29.0242C59.7353 28.8262 60.382 28.813 61.0156 28.9846C61.6492 29.1562 62.2266 29.5027 62.748 30.0241C63.408 30.684 63.7941 31.3869 63.9063 32.1326C64.0316 32.8784 63.8799 33.6176 63.4509 34.3501L62.2332 33.1325C62.4048 32.7629 62.4576 32.3933 62.3916 32.0237C62.3256 31.6542 62.1276 31.3044 61.7977 30.9744C61.3357 30.5124 60.8011 30.3078 60.1939 30.3606C59.6 30.4134 59.0093 30.7335 58.4219 31.3209C57.8346 31.9083 57.5112 32.5022 57.4518 33.1028C57.399 33.71 57.6036 34.2445 58.0656 34.7065C58.7189 35.3599 59.4383 35.5051 60.2236 35.1421L61.4413 36.3597C60.7285 36.7557 59.9894 36.9009 59.2238 36.7953C58.4648 36.6831 57.762 36.3036 57.1152 35.6569C56.5938 35.1355 56.2473 34.558 56.0758 33.9245C55.9108 33.2843 55.924 32.6375 56.1154 31.9842C56.3199 31.3308 56.7027 30.7236 57.2637 30.1626ZM63.1203 41.662C62.6056 41.1472 62.2558 40.5664 62.071 39.9197C61.8928 39.2663 61.8961 38.6096 62.0809 37.9497C62.2723 37.2831 62.6485 36.6693 63.2094 36.1084C63.7638 35.554 64.3776 35.1844 65.0507 34.9996C65.7239 34.8148 66.3872 34.8181 67.0405 35.0095C67.6939 35.2009 68.2813 35.5573 68.8026 36.0787C69.324 36.6 69.6804 37.1874 69.8718 37.8408C70.0632 38.4942 70.0665 39.1574 69.8817 39.8306C69.6969 40.5037 69.3273 41.1175 68.7729 41.6719C68.2186 42.2263 67.6015 42.5925 66.9217 42.7707C66.242 42.9489 65.5655 42.939 64.8923 42.741C64.2324 42.543 63.6417 42.1834 63.1203 41.662ZM64.1004 40.6819C64.3908 40.9723 64.7306 41.1736 65.12 41.2858C65.516 41.4046 65.9318 41.4046 66.3674 41.2858C66.8029 41.167 67.2187 40.9096 67.6147 40.5136C68.0107 40.1177 68.2681 39.7085 68.3869 39.2861C68.5123 38.8571 68.5189 38.448 68.4067 38.0586C68.2945 37.6692 68.0932 37.3293 67.8028 37.0389C67.5124 36.7485 67.1725 36.5473 66.7831 36.4351C66.4004 36.3295 65.9978 36.3427 65.5754 36.4747C65.1596 36.6 64.7537 36.8607 64.3578 37.2567C63.7704 37.8441 63.4635 38.448 63.4371 39.0683C63.4239 39.6887 63.645 40.2266 64.1004 40.6819ZM79.303 46.579C79.732 47.008 80.0256 47.4799 80.184 47.9947C80.349 48.516 80.3523 49.0473 80.1939 49.5885C80.0421 50.1362 79.7188 50.6576 79.2238 51.1526L76.0065 54.3699L74.8878 53.2513L77.9369 50.2022C78.4252 49.7139 78.676 49.2189 78.6892 48.7173C78.709 48.2091 78.5077 47.7439 78.0853 47.3215C77.663 46.8991 77.1944 46.6945 76.6796 46.7077C76.178 46.7209 75.6831 46.9717 75.1947 47.4601L72.1457 50.5091L71.027 49.3905L74.0761 46.3414C74.5644 45.8531 74.8152 45.3581 74.8284 44.8565C74.8482 44.3483 74.6469 43.8831 74.2245 43.4607C73.8022 43.0383 73.3336 42.8337 72.8188 42.8469C72.3172 42.8601 71.8223 43.1109 71.3339 43.5993L68.2848 46.6483L67.1563 45.5198L72.6109 40.0652L73.7395 41.1937L73.1158 41.8174C73.525 41.7778 73.9342 41.8372 74.3433 41.9956C74.7525 42.1539 75.1188 42.3948 75.4422 42.7182C75.8778 43.1538 76.1747 43.6356 76.3331 44.1635C76.4915 44.6915 76.4882 45.2228 76.3232 45.7574C76.8182 45.5924 77.3363 45.5891 77.8775 45.7475C78.4252 45.8993 78.9004 46.1764 79.303 46.579ZM89.5892 56.8652C90.0182 57.2942 90.3118 57.7661 90.4702 58.2808C90.6352 58.8022 90.6385 59.3335 90.4801 59.8747C90.3283 60.4224 90.005 60.9438 89.51 61.4388L86.2926 64.6561L85.174 63.5375L88.223 60.4884C88.7114 60.0001 88.9622 59.5051 88.9754 59.0035C88.9952 58.4953 88.7939 58.0301 88.3715 57.6077C87.9492 57.1853 87.4806 56.9807 86.9658 56.9939C86.4642 57.0071 85.9693 57.2579 85.4809 57.7463L82.4318 60.7953L81.3132 59.6767L84.3622 56.6276C84.8506 56.1393 85.1014 55.6443 85.1146 55.1427C85.1344 54.6345 84.9331 54.1693 84.5107 53.7469C84.0884 53.3245 83.6198 53.1199 83.105 53.1331C82.6034 53.1463 82.1085 53.3971 81.6201 53.8855L78.571 56.9345L77.4425 55.806L82.8971 50.3513L84.0257 51.4799L83.402 52.1036C83.8112 52.064 84.2204 52.1234 84.6295 52.2818C85.0387 52.4401 85.405 52.681 85.7284 53.0044C86.164 53.44 86.4609 53.9218 86.6193 54.4497C86.7777 54.9777 86.7744 55.509 86.6094 56.0436C87.1044 55.8786 87.6225 55.8753 88.1637 56.0337C88.7114 56.1855 89.1866 56.4626 89.5892 56.8652ZM95.5889 68.2305C95.3843 68.435 95.1863 68.6066 94.9949 68.7452L90.8272 64.5775C90.4247 65.0461 90.2366 65.5576 90.263 66.112C90.2894 66.6663 90.5138 67.1547 90.9361 67.5771C91.5433 68.1843 92.2264 68.3591 92.9853 68.1018L94.203 69.3194C93.5364 69.656 92.8236 69.7682 92.0647 69.656C91.3189 69.5438 90.6259 69.1676 89.9858 68.5274C89.4644 68.0061 89.1113 67.422 88.9265 66.7752C88.7549 66.1285 88.7615 65.4751 88.9463 64.8151C89.1443 64.1552 89.5238 63.5447 90.0848 62.9837C90.6457 62.4228 91.2496 62.0433 91.8964 61.8453C92.5563 61.6473 93.2064 61.6374 93.8466 61.8156C94.4933 62.0004 95.084 62.3601 95.6186 62.8946C96.1334 63.4094 96.4798 63.9803 96.658 64.6072C96.8362 65.2342 96.8329 65.8645 96.6481 66.498C96.4699 67.125 96.1169 67.7025 95.5889 68.2305ZM94.7672 66.696C95.1764 66.2737 95.3612 65.7919 95.3216 65.2507C95.282 64.7095 95.0477 64.2245 94.6187 63.7955C94.2294 63.4061 93.7707 63.1982 93.2427 63.1718C92.7213 63.1388 92.2231 63.3071 91.7479 63.6767L94.7672 66.696ZM102.134 69.4104C102.563 69.8393 102.857 70.3112 103.015 70.826C103.18 71.3474 103.184 71.8786 103.025 72.4198C102.867 72.961 102.54 73.479 102.045 73.974L98.8279 77.1914L97.7092 76.0727L100.758 73.0237C101.247 72.5353 101.497 72.0403 101.511 71.5387C101.53 71.0306 101.329 70.5653 100.907 70.1429C100.484 69.7205 100.016 69.5159 99.501 69.5291C98.9995 69.5423 98.5045 69.7931 98.0161 70.2815L94.9671 73.3306L93.8385 72.202L99.2932 66.7474L100.422 67.8759L99.798 68.4996C100.207 68.46 100.616 68.5194 101.026 68.6778C101.441 68.8428 101.811 69.087 102.134 69.4104ZM102.643 75.5026C103.191 74.9549 103.788 74.582 104.435 74.384C105.088 74.1926 105.725 74.1761 106.346 74.3345C106.979 74.4929 107.537 74.813 108.019 75.2948C108.375 75.6511 108.646 76.0801 108.83 76.5817C109.028 77.0833 109.101 77.565 109.048 78.027L111.682 75.3937L112.82 76.5322L105.494 83.8578L104.356 82.7194L105.178 81.8977C104.729 81.9769 104.254 81.9373 103.752 81.7789C103.257 81.6271 102.798 81.34 102.376 80.9177C101.901 80.4425 101.584 79.8881 101.426 79.2545C101.28 78.621 101.307 77.9742 101.505 77.3142C101.716 76.6543 102.096 76.0504 102.643 75.5026ZM107.088 79.9871C107.464 79.6109 107.712 79.2051 107.831 78.7695C107.956 78.3405 107.966 77.928 107.86 77.532C107.755 77.1361 107.557 76.7929 107.266 76.5025C106.976 76.2121 106.633 76.0141 106.237 75.9085C105.847 75.7963 105.435 75.7996 104.999 75.9184C104.577 76.0372 104.178 76.2847 103.802 76.6609C103.425 77.0371 103.171 77.4429 103.039 77.8785C102.914 78.3207 102.901 78.7431 103 79.1457C103.112 79.5482 103.31 79.8914 103.594 80.1752C103.884 80.4656 104.227 80.6636 104.623 80.7692C105.019 80.8748 105.432 80.8649 105.861 80.7395C106.303 80.6141 106.712 80.3633 107.088 79.9871ZM114.837 87.4784C114.632 87.683 114.434 87.8546 114.243 87.9932L110.075 83.8255C109.673 84.2941 109.485 84.8055 109.511 85.3599C109.537 85.9143 109.762 86.4027 110.184 86.825C110.791 87.4322 111.474 87.6071 112.233 87.3497L113.451 88.5673C112.784 88.9039 112.072 89.0161 111.313 88.9039C110.567 88.7917 109.874 88.4156 109.234 87.7754C108.712 87.254 108.359 86.6699 108.174 86.0232C108.003 85.3764 108.009 84.723 108.194 84.0631C108.392 83.4031 108.772 82.7926 109.333 82.2317C109.894 81.6707 110.498 81.2912 111.144 81.0932C111.804 80.8952 112.454 80.8853 113.095 81.0635C113.741 81.2483 114.332 81.608 114.867 82.1426C115.381 82.6573 115.728 83.2282 115.906 83.8552C116.084 84.4822 116.081 85.1124 115.896 85.746C115.718 86.373 115.365 86.9504 114.837 87.4784ZM114.015 85.944C114.424 85.5216 114.609 85.0398 114.57 84.4987C114.53 83.9575 114.296 83.4724 113.867 83.0434C113.477 82.654 113.019 82.4462 112.491 82.4198C111.969 82.3868 111.471 82.5551 110.996 82.9246L114.015 85.944ZM115.462 88.3217C116.01 87.7739 116.607 87.4011 117.254 87.2031C117.908 87.0117 118.544 86.9952 119.165 87.1536C119.798 87.312 120.356 87.632 120.838 88.1138C121.194 88.4702 121.465 88.8992 121.65 89.4008C121.848 89.9023 121.92 90.3841 121.867 90.8461L124.501 88.2128L125.639 89.3513L118.313 96.6769L117.175 95.5384L117.997 94.7168C117.548 94.796 117.073 94.7564 116.571 94.598C116.076 94.4462 115.617 94.1591 115.195 93.7367C114.72 93.2616 114.403 92.7072 114.245 92.0736C114.1 91.4401 114.126 90.7933 114.324 90.1333C114.535 89.4734 114.915 88.8695 115.462 88.3217ZM119.907 92.8062C120.283 92.43 120.531 92.0241 120.65 91.5885C120.775 91.1596 120.785 90.7471 120.679 90.3511C120.574 89.9551 120.376 89.6119 120.085 89.3216C119.795 89.0312 119.452 88.8332 119.056 88.7276C118.666 88.6154 118.254 88.6187 117.818 88.7375C117.396 88.8563 116.997 89.1038 116.621 89.48C116.244 89.8561 115.99 90.262 115.858 90.6976C115.733 91.1398 115.72 91.5621 115.819 91.9647C115.931 92.3673 116.129 92.7105 116.413 92.9943C116.703 93.2847 117.046 93.4826 117.442 93.5882C117.838 93.6938 118.251 93.6839 118.68 93.5585C119.122 93.4332 119.531 93.1824 119.907 92.8062Z" fill="white"/>
<defs>
<linearGradient id="paint0_linear_5425_21217" x1="79.3496" y1="1.60164e-05" x2="70.4327" y2="137.421" gradientUnits="userSpaceOnUse">
<stop stop-color="#F37899"/>
<stop offset="1" stop-color="#F24B77"/>
</linearGradient>
</defs>
</svg>
