<svg width="34" height="34" viewBox="0 0 34 34" fill="none" xmlns="http://www.w3.org/2000/svg">
<rect width="34" height="34" rx="8" fill="black" fill-opacity="0.5"/>
<path d="M26.3333 9.99998H21.6667V8.83331C21.6667 7.90506 21.2979 7.01482 20.6415 6.35844C19.9852 5.70206 19.0949 5.33331 18.1667 5.33331H15.8333C14.9051 5.33331 14.0148 5.70206 13.3585 6.35844C12.7021 7.01482 12.3333 7.90506 12.3333 8.83331V9.99998H7.66667C7.35725 9.99998 7.0605 10.1229 6.84171 10.3417C6.62292 10.5605 6.5 10.8572 6.5 11.1666C6.5 11.4761 6.62292 11.7728 6.84171 11.9916C7.0605 12.2104 7.35725 12.3333 7.66667 12.3333H8.83333V25.1666C8.83333 26.0949 9.20208 26.9851 9.85846 27.6415C10.5148 28.2979 11.4051 28.6666 12.3333 28.6666H21.6667C22.5949 28.6666 23.4852 28.2979 24.1415 27.6415C24.7979 26.9851 25.1667 26.0949 25.1667 25.1666V12.3333H26.3333C26.6428 12.3333 26.9395 12.2104 27.1583 11.9916C27.3771 11.7728 27.5 11.4761 27.5 11.1666C27.5 10.8572 27.3771 10.5605 27.1583 10.3417C26.9395 10.1229 26.6428 9.99998 26.3333 9.99998ZM14.6667 8.83331C14.6667 8.52389 14.7896 8.22715 15.0084 8.00836C15.2272 7.78956 15.5239 7.66665 15.8333 7.66665H18.1667C18.4761 7.66665 18.7728 7.78956 18.9916 8.00836C19.2104 8.22715 19.3333 8.52389 19.3333 8.83331V9.99998H14.6667V8.83331ZM22.8333 25.1666C22.8333 25.4761 22.7104 25.7728 22.4916 25.9916C22.2728 26.2104 21.9761 26.3333 21.6667 26.3333H12.3333C12.0239 26.3333 11.7272 26.2104 11.5084 25.9916C11.2896 25.7728 11.1667 25.4761 11.1667 25.1666V12.3333H22.8333V25.1666Z" fill="#8D8D8D"/>
</svg>
