<svg width="40" height="40" viewBox="0 0 40 40" fill="none" xmlns="http://www.w3.org/2000/svg">
<rect width="40" height="40" rx="8" fill="#202020"/>
<path d="M27.478 20.54C27.518 20.24 27.538 19.93 27.538 19.6C27.538 19.28 27.518 18.96 27.468 18.66L29.498 17.08C29.678 16.94 29.728 16.67 29.618 16.47L27.698 13.15C27.578 12.93 27.328 12.86 27.108 12.93L24.718 13.89C24.218 13.51 23.688 13.19 23.098 12.95L22.738 10.41C22.698 10.17 22.498 10 22.258 10H18.418C18.178 10 17.988 10.17 17.948 10.41L17.588 12.95C16.998 13.19 16.458 13.52 15.968 13.89L13.578 12.93C13.358 12.85 13.108 12.93 12.988 13.15L11.078 16.47C10.958 16.68 10.998 16.94 11.198 17.08L13.228 18.66C13.178 18.96 13.138 19.29 13.138 19.6C13.138 19.91 13.158 20.24 13.208 20.54L11.178 22.12C10.998 22.26 10.948 22.53 11.058 22.73L12.978 26.05C13.098 26.27 13.348 26.34 13.568 26.27L15.958 25.31C16.458 25.69 16.988 26.01 17.578 26.25L17.938 28.79C17.988 29.03 18.178 29.2 18.418 29.2H22.258C22.498 29.2 22.698 29.03 22.728 28.79L23.088 26.25C23.678 26.01 24.218 25.69 24.708 25.31L27.098 26.27C27.318 26.35 27.568 26.27 27.688 26.05L29.608 22.73C29.728 22.51 29.678 22.26 29.488 22.12L27.478 20.54ZM20.338 23.2C18.358 23.2 16.738 21.58 16.738 19.6C16.738 17.62 18.358 16 20.338 16C22.318 16 23.938 17.62 23.938 19.6C23.938 21.58 22.318 23.2 20.338 23.2Z" fill="#878C94"/>
</svg>
