<svg width="54" height="54" viewBox="0 0 54 54" fill="none" xmlns="http://www.w3.org/2000/svg">
<rect width="54" height="54" rx="27" fill="white"/>
<path d="M34.5 39.5C36.5711 39.5 38.25 37.8211 38.25 35.75C38.25 33.6789 36.5711 32 34.5 32C32.4289 32 30.75 33.6789 30.75 35.75C30.75 37.8211 32.4289 39.5 34.5 39.5Z" fill="#798292"/>
<path d="M19.5 30.75C21.5711 30.75 23.25 29.0711 23.25 27C23.25 24.9289 21.5711 23.25 19.5 23.25C17.4289 23.25 15.75 24.9289 15.75 27C15.75 29.0711 17.4289 30.75 19.5 30.75Z" stroke="#798292" stroke-width="2" stroke-linecap="round" stroke-linejoin="round"/>
<path d="M22.7373 28.8875L31.2748 33.8624" stroke="#798292" stroke-width="2" stroke-linecap="round" stroke-linejoin="round"/>
<path d="M34.5 22C36.5711 22 38.25 20.3211 38.25 18.25C38.25 16.1789 36.5711 14.5 34.5 14.5C32.4289 14.5 30.75 16.1789 30.75 18.25C30.75 20.3211 32.4289 22 34.5 22Z" stroke="#798292" stroke-width="2" stroke-linecap="round" stroke-linejoin="round"/>
<path d="M31.2623 20.1375L22.7373 25.1125" stroke="#798292" stroke-width="2" stroke-linecap="round" stroke-linejoin="round"/>
</svg>
