<svg width="30" height="30" viewBox="0 0 30 30" fill="none" xmlns="http://www.w3.org/2000/svg">
<path d="M0 6C0 2.68629 2.68629 0 6 0H24C27.3137 0 30 2.68629 30 6V24C30 27.3137 27.3137 30 24 30H6C2.68629 30 0 27.3137 0 24V6Z" fill="url(#paint0_linear_474:3345)"/>
<path d="M28 14.9797C28 15.791 26.5826 16.4805 26.4206 17.2512C26.2586 18.0624 27.3115 19.1981 26.9875 19.9688C26.6636 20.7395 25.1246 20.8206 24.6791 21.4696C24.2336 22.1591 24.7601 23.6193 24.1931 24.1872C23.6262 24.7551 22.1682 24.2278 21.4797 24.6739C20.8318 25.1201 20.7103 26.702 19.9813 26.986C19.2523 27.3105 18.0779 26.2558 17.2679 26.4181C16.4984 26.5803 15.81 28 15 28C14.19 28 13.5016 26.5803 12.7321 26.4181C11.9221 26.2558 10.7882 27.3105 10.0187 26.986C9.24922 26.7426 9.16822 25.1607 8.52025 24.7145C7.83178 24.2683 6.37383 24.7956 5.80685 24.2278C5.23987 23.6599 5.76636 22.1997 5.32087 21.5101C4.87539 20.8612 3.29595 20.7395 3.01246 20.0094C2.68847 19.2793 3.74143 18.103 3.57944 17.2917C3.41745 16.5211 2 15.8315 2 15.0203C2 14.209 3.41745 13.5195 3.57944 12.7488C3.74143 11.9376 2.68847 10.8019 3.01246 10.0312C3.33645 9.26053 4.87539 9.17941 5.32087 8.53042C5.76636 7.84087 5.23987 6.38066 5.80685 5.81279C6.37383 5.24493 7.83178 5.77223 8.52025 5.32605C9.16822 4.87988 9.28972 3.29797 10.0187 3.01404C10.7477 2.68955 11.9221 3.74415 12.7321 3.5819C13.5016 3.41966 14.19 2 15 2C15.81 2 16.4984 3.41966 17.2679 3.5819C18.0779 3.74415 19.2118 2.68955 19.9813 3.01404C20.7508 3.33853 20.8318 4.87988 21.4797 5.32605C22.1682 5.77223 23.6262 5.24493 24.1931 5.81279C24.7601 6.38066 24.2336 7.84087 24.6791 8.53042C25.1246 9.17941 26.7041 9.30109 26.9875 10.0312C27.3115 10.7613 26.2586 11.9376 26.4206 12.7488C26.5826 13.4789 28 14.1685 28 14.9797Z" fill="white" fill-opacity="0.5"/>
<path d="M15 23.125C19.4873 23.125 23.125 19.4873 23.125 15C23.125 10.5127 19.4873 6.875 15 6.875C10.5127 6.875 6.875 10.5127 6.875 15C6.875 19.4873 10.5127 23.125 15 23.125Z" fill="white" fill-opacity="0.75"/>
<defs>
<linearGradient id="paint0_linear_474:3345" x1="15" y1="3.67074e-05" x2="15" y2="30" gradientUnits="userSpaceOnUse">
<stop stop-color="#35E87C"/>
<stop offset="1" stop-color="#14995A"/>
</linearGradient>
</defs>
</svg>
