<svg width="36" height="24" viewBox="0 0 36 24" fill="none" xmlns="http://www.w3.org/2000/svg">
<path d="M11 18V16.6667C11 15.9594 10.7471 15.2811 10.2971 14.781C9.84697 14.281 9.23652 14 8.6 14H4.4C3.76348 14 3.15303 14.281 2.70294 14.781C2.25286 15.2811 2 15.9594 2 16.6667V18" stroke="#00A0FF" stroke-width="2" stroke-linecap="round" stroke-linejoin="round"/>
<path d="M16 11H12" stroke="#00A0FF" stroke-width="2" stroke-linecap="round" stroke-linejoin="round"/>
<path d="M6.5 11C7.88071 11 9 9.88071 9 8.5C9 7.11929 7.88071 6 6.5 6C5.11929 6 4 7.11929 4 8.5C4 9.88071 5.11929 11 6.5 11Z" stroke="#00A0FF" stroke-width="2" stroke-linecap="round" stroke-linejoin="round"/>
</svg>
