<svg width="211" height="152" viewBox="0 0 211 152" fill="none" xmlns="http://www.w3.org/2000/svg">
<rect x="36.0029" y="30.0022" width="141.502" height="121.008" rx="22.1212" fill="#CAEBFF" fill-opacity="0.25"/>
<circle cx="4.78304" cy="85.8756" r="4.78304" fill="#CAEBFF" fill-opacity="0.25"/>
<circle cx="204.46" cy="96.8032" r="3.82643" fill="#CAEBFF" fill-opacity="0.25"/>
<circle cx="208.673" cy="55.5762" r="1.74756" fill="#CAEBFF" fill-opacity="0.25"/>
<circle cx="135.473" cy="3.34813" r="3.34813" fill="#CAEBFF" fill-opacity="0.25"/>
<circle cx="25.0565" cy="23.658" r="4.78304" fill="#CAEBFF" fill-opacity="0.25"/>
<circle cx="13.797" cy="13.7975" r="1.91321" fill="#CAEBFF" fill-opacity="0.25"/>
<path fill-rule="evenodd" clip-rule="evenodd" d="M105.383 70.1532C106.536 68.6218 108.835 68.6218 109.989 70.1532L117.98 80.765C119.41 82.6647 118.055 85.3819 115.677 85.3819H111.586C111.586 85.3868 111.586 85.3917 111.586 85.3965V95.5973C111.586 97.7513 109.84 99.4975 107.686 99.4975C105.531 99.4975 103.785 97.7513 103.785 95.5973V85.3965C103.785 85.3917 103.785 85.3868 103.785 85.3819H99.6946C98.5056 85.3819 97.5722 84.7026 97.115 83.7858C96.6577 82.8691 96.6765 81.7149 97.3918 80.765L105.383 70.1532Z" fill="#878C94"/>
<path d="M92.1154 92.123C92.1154 90.4025 90.7206 89.0077 89 89.0077C87.2794 89.0077 85.8846 90.4025 85.8846 92.123H92.1154ZM89 110.123H85.8846C85.8846 111.844 87.2794 113.238 89 113.238V110.123ZM125 110.123V113.238C126.721 113.238 128.115 111.844 128.115 110.123H125ZM128.115 92.123C128.115 90.4025 126.721 89.0077 125 89.0077C123.279 89.0077 121.885 90.4025 121.885 92.123H128.115ZM85.8846 92.123V110.123H92.1154V92.123H85.8846ZM89 113.238H125V107.008H89V113.238ZM128.115 110.123V92.123H121.885V110.123H128.115Z" fill="#878C94"/>
</svg>
