<svg width="32" height="32" viewBox="0 0 32 32" fill="none" xmlns="http://www.w3.org/2000/svg">
<path d="M32 15.975C32 16.9735 30.2555 17.8222 30.0561 18.7707C29.8567 19.7691 31.1526 21.1669 30.7539 22.1154C30.3551 23.064 28.4611 23.1638 27.9128 23.9626C27.3645 24.8112 28.0125 26.6084 27.3146 27.3073C26.6168 28.0062 24.8224 27.3573 23.9751 27.9064C23.1776 28.4555 23.028 30.4025 22.1308 30.752C21.2336 31.1513 19.7882 29.8534 18.7913 30.053C17.8442 30.2527 16.9969 32 16 32C15.0031 32 14.1558 30.2527 13.2087 30.053C12.2118 29.8534 10.8162 31.1513 9.86916 30.752C8.92212 30.4524 8.82243 28.5055 8.02492 27.9563C7.17757 27.4072 5.38318 28.0562 4.68536 27.3573C3.98754 26.6583 4.63551 24.8612 4.08723 24.0125C3.53894 23.2137 1.59502 23.064 1.24611 22.1654C0.847352 21.2668 2.1433 19.819 1.94393 18.8206C1.74455 17.8721 0 17.0234 0 16.025C0 15.0265 1.74455 14.1778 1.94393 13.2293C2.1433 12.2309 0.847352 10.8331 1.24611 9.88456C1.64486 8.93604 3.53894 8.83619 4.08723 8.03744C4.63551 7.18877 3.98754 5.39158 4.68536 4.69267C5.38318 3.99376 7.17757 4.64275 8.02492 4.0936C8.82243 3.54446 8.97196 1.5975 9.86916 1.24805C10.7664 0.848674 12.2118 2.14665 13.2087 1.94696C14.1558 1.74727 15.0031 0 16 0C16.9969 0 17.8442 1.74727 18.7913 1.94696C19.7882 2.14665 21.1838 0.848674 22.1308 1.24805C23.0779 1.64743 23.1776 3.54446 23.9751 4.0936C24.8224 4.64275 26.6168 3.99376 27.3146 4.69267C28.0125 5.39158 27.3645 7.18877 27.9128 8.03744C28.4611 8.83619 30.405 8.98596 30.7539 9.88456C31.1526 10.7832 29.8567 12.2309 30.0561 13.2293C30.2555 14.1279 32 14.9766 32 15.975Z" fill="url(#paint0_linear_3740_11406)"/>
<path d="M16 28C22.6274 28 28 22.6274 28 16C28 9.37258 22.6274 4 16 4C9.37258 4 4 9.37258 4 16C4 22.6274 9.37258 28 16 28Z" fill="url(#paint1_linear_3740_11406)"/>
<path d="M10.916 16.4243L15.0032 19.7191L21.0842 12.2808" stroke="#E9EBFD" stroke-width="2" stroke-miterlimit="10" stroke-linecap="round" stroke-linejoin="round"/>
<defs>
<linearGradient id="paint0_linear_3740_11406" x1="3.4891" y1="4.9922" x2="26.9512" y2="27.6702" gradientUnits="userSpaceOnUse">
<stop stop-color="#C0E9FF"/>
<stop offset="1" stop-color="#63B7FF"/>
</linearGradient>
<linearGradient id="paint1_linear_3740_11406" x1="14.875" y1="3.07353" x2="25.3822" y2="22.2398" gradientUnits="userSpaceOnUse">
<stop stop-color="#04A7FD"/>
<stop offset="1" stop-color="#0B47FD"/>
</linearGradient>
</defs>
</svg>
