<svg width="18" height="18" viewBox="0 0 18 18" fill="none" xmlns="http://www.w3.org/2000/svg">
<path d="M10.9974 9L17.0891 2.9225C17.3558 2.65573 17.5057 2.29393 17.5057 1.91667C17.5057 1.5394 17.3558 1.1776 17.0891 0.910832C16.8223 0.644068 16.4605 0.494202 16.0832 0.494202C15.706 0.494202 15.3442 0.644068 15.0774 0.910832L8.99991 7.0025L2.92241 0.910832C2.65565 0.644068 2.29384 0.494202 1.91658 0.494202C1.53932 0.494202 1.17751 0.644068 0.910747 0.910832C0.643983 1.1776 0.494117 1.5394 0.494117 1.91667C0.494117 2.29393 0.643983 2.65573 0.910747 2.9225L7.00241 9L0.910747 15.0775C0.777965 15.2092 0.672573 15.3659 0.600651 15.5385C0.528729 15.7111 0.491699 15.8963 0.491699 16.0833C0.491699 16.2703 0.528729 16.4555 0.600651 16.6281C0.672573 16.8008 0.777965 16.9575 0.910747 17.0892C1.04244 17.2219 1.19913 17.3273 1.37176 17.3993C1.5444 17.4712 1.72956 17.5082 1.91658 17.5082C2.1036 17.5082 2.28876 17.4712 2.4614 17.3993C2.63403 17.3273 2.79072 17.2219 2.92241 17.0892L8.99991 10.9975L15.0774 17.0892C15.2091 17.2219 15.3658 17.3273 15.5384 17.3993C15.7111 17.4712 15.8962 17.5082 16.0832 17.5082C16.2703 17.5082 16.4554 17.4712 16.6281 17.3993C16.8007 17.3273 16.9574 17.2219 17.0891 17.0892C17.2219 16.9575 17.3273 16.8008 17.3992 16.6281C17.4711 16.4555 17.5081 16.2703 17.5081 16.0833C17.5081 15.8963 17.4711 15.7111 17.3992 15.5385C17.3273 15.3659 17.2219 15.2092 17.0891 15.0775L10.9974 9Z" fill="white"/>
</svg>
